<?xml version="1.0" encoding="UTF-8"?>
<svg version="1.1" xmlns="http://www.w3.org/2000/svg" width="1024" height="1024">
<path d="M0 0 C0.5878125 0.12761719 1.175625 0.25523437 1.78125 0.38671875 C5.1052397 1.30549759 8.07042256 2.93177364 11.125 4.5 C12.07439453 4.98146484 12.07439453 4.98146484 13.04296875 5.47265625 C14.69692865 6.31192677 16.34861152 7.15568108 18 8 C18.66 8.33 19.32 8.66 20 9 C20.81984375 9.63035156 20.81984375 9.63035156 21.65625 10.2734375 C24.1701349 12.12533271 26.76749873 13.7360872 29.4309082 15.36157227 C41.38949132 22.66371594 52.21535955 31.05621605 63 40 C63.66644531 40.52980469 64.33289063 41.05960937 65.01953125 41.60546875 C66.38212953 42.69363271 67.69862362 43.83931296 69 45 C69 45.66 69 46.32 69 47 C69.99 47.33 70.98 47.66 72 48 C73.54296875 49.56640625 73.54296875 49.56640625 75.1875 51.5625 C77.54887656 54.36080487 79.95116108 56.93890211 82.625 59.4375 C89.20279854 65.93881251 94.55799603 73.55081093 100 81 C100.66950684 81.91048096 100.66950684 81.91048096 101.35253906 82.83935547 C115.00320131 101.62902778 130.02751511 127.10482043 133.48925781 150.2746582 C133.65780273 151.174021 133.82634766 152.07338379 134 153 C134.66 153.33 135.32 153.66 136 154 C136.4921875 155.765625 136.4921875 155.765625 136.875 158.25 C137.50491821 162.10449951 138.17550071 165.94080977 138.9453125 169.76953125 C144.93320177 199.59954572 146.05858289 229.34123833 141.36376953 259.47265625 C140.76486534 263.63363354 140.37713129 267.81389887 140 272 C139.34 272 138.68 272 138 272 C137.89429688 273.09570312 137.78859375 274.19140625 137.6796875 275.3203125 C134.74539897 298.4798701 123.91541582 321.74276019 112.6875 341.9375 C111.96880737 343.2517395 111.96880737 343.2517395 111.2355957 344.5925293 C108.48246876 349.34204235 106.43297678 352.17634346 101 354 C95.76470409 354.13777095 91.7451228 350.30015771 88 347 C86.45353275 345.31469778 85.01251096 343.57803559 83.578125 341.796875 C81.22270955 339.11496632 78.50031354 336.92176622 75.734375 334.67578125 C73.9031348 332.90640727 72.99373565 331.32716666 72 329 C71.34 329 70.68 329 70 329 C67.51182301 326.76064071 65.41049145 324.84512945 63.9375 321.8125 C63.1413346 319.8295017 63.1413346 319.8295017 61.0625 319.0625 C58.01449521 317.49231571 57.16889516 316.23165133 56 313 C56.80471105 307.59694008 59.64373912 302.51966773 61.8125 297.5625 C67.25381754 284.92894591 71.14579611 272.30913557 73.875 258.8125 C74.090354 257.74926514 74.30570801 256.68603027 74.52758789 255.59057617 C75.54708074 250.28034819 76.13146074 245.39719359 76 240 C76.33 239.34 76.66 238.68 77 238 C77.15644172 235.44893971 77.25821389 232.92081337 77.31640625 230.3671875 C77.3475779 229.23943405 77.3475779 229.23943405 77.37937927 228.08889771 C77.44482705 225.68435915 77.50373738 223.27971033 77.5625 220.875 C77.60568977 219.24608229 77.64930421 217.61717578 77.69335938 215.98828125 C77.80050351 211.99230085 77.90178433 207.99620941 78 204 C77.34 203.67 76.68 203.34 76 203 C76.061875 201.35064453 76.061875 201.35064453 76.125 199.66796875 C76.11574862 194.39815159 75.12288331 189.44561847 74 184.3125 C73.67866089 182.82737915 73.67866089 182.82737915 73.35083008 181.31225586 C70.94176973 170.81414875 67.15630092 160.91594566 63 151 C62.01 151.33 61.02 151.66 60 152 C60.12375 151.071875 60.2475 150.14375 60.375 149.1875 C60.4457049 143.46040343 56.87762074 138.73608413 54 134 C53.34 134 52.68 134 52 134 C51.92265625 132.75476563 51.92265625 132.75476563 51.84375 131.484375 C50.72135545 126.84930123 48.41073768 123.95776235 45.5 120.25 C44.96189697 119.54915283 44.42379395 118.84830566 43.86938477 118.1262207 C39.03912336 111.9009483 34.01193406 105.76062723 28.25390625 100.36328125 C27 99 27 99 27 97 C26.34 97 25.68 97 25 97 C25 96.34 25 95.68 25 95 C24.42507813 94.74992187 23.85015625 94.49984375 23.2578125 94.2421875 C20.68857472 92.82866222 18.97105186 91.17597548 16.875 89.125 C-8.00286741 66.43259679 -42.75206807 52.09645007 -76 48 C-76.89976562 47.88914062 -77.79953125 47.77828125 -78.7265625 47.6640625 C-85.14664322 47.00967411 -91.55233011 46.90060292 -98 46.875 C-98.8257251 46.87032715 -99.6514502 46.8656543 -100.50219727 46.86083984 C-101.67673462 46.86398193 -101.67673462 46.86398193 -102.875 46.8671875 C-103.57367187 46.86831543 -104.27234375 46.86944336 -104.9921875 46.87060547 C-107.02317045 46.94055913 -107.02317045 46.94055913 -109.03100586 47.51147461 C-111 48 -111 48 -114.62890625 47.94921875 C-119.5450615 47.88891877 -124.14142693 48.80799117 -128.9375 49.8125 C-129.77990234 49.97814453 -130.62230469 50.14378906 -131.49023438 50.31445312 C-137.15879077 51.47085608 -142.55119571 53.0665983 -148 55 C-150.63562392 55.87854131 -153.27730258 56.69994063 -155.9375 57.5 C-157.21947266 57.88671875 -157.21947266 57.88671875 -158.52734375 58.28125 C-160.67582175 58.90576809 -162.82535433 59.47525951 -165 60 C-165 60.99 -165 61.98 -165 63 C-165.99128906 63.08636719 -166.98257813 63.17273438 -168.00390625 63.26171875 C-172.45893341 63.90901128 -176.01076378 65.68083007 -179.9375 67.8125 C-180.66316162 68.20195801 -181.38882324 68.59141602 -182.13647461 68.99267578 C-187.71863658 72.08591049 -192.9353798 75.57964449 -198.0625 79.375 C-198.75915771 79.88651611 -199.45581543 80.39803223 -200.17358398 80.92504883 C-201.8452773 82.20517434 -203.43213793 83.59462162 -205 85 C-205 85.99 -205 86.98 -205 88 C-205.680625 88.020625 -206.36125 88.04125 -207.0625 88.0625 C-210.93702916 89.29905186 -212.75721296 91.53732781 -215.44921875 94.50390625 C-217 96 -217 96 -219 96 C-219.22945313 96.55429687 -219.45890625 97.10859375 -219.6953125 97.6796875 C-221.36066418 100.64142073 -223.49216456 102.70072394 -225.875 105.125 C-235.10303288 114.83985759 -242.23580007 126.52865621 -248.81640625 138.15234375 C-250.10183369 140.15896811 -251.13210405 141.50695703 -253 143 C-255.50883484 143.43237305 -255.50883484 143.43237305 -258.5378418 143.51171875 C-259.67299728 143.54765137 -260.80815277 143.58358398 -261.97770691 143.62060547 C-263.20580582 143.64268066 -264.43390472 143.66475586 -265.69921875 143.6875 C-267.59544731 143.73221436 -267.59544731 143.73221436 -269.52998352 143.77783203 C-272.20921078 143.83564096 -274.88769435 143.88686773 -277.56713867 143.92822266 C-280.9830338 143.98259429 -284.39681707 144.07371258 -287.81160259 144.17494202 C-291.08619873 144.26519835 -294.361404 144.31781265 -297.63671875 144.375 C-298.8546965 144.41326904 -300.07267426 144.45153809 -301.32756042 144.4909668 C-308.4817538 144.55757421 -313.56113638 143.91498534 -319 139 C-321.31945375 135.78844866 -321.01456125 134.14803933 -320.625 130.1875 C-318.86510996 123.36366829 -315.31279748 117.17127598 -312.04052734 110.97509766 C-311.10173443 109.19310923 -310.18430241 107.39990699 -309.26953125 105.60546875 C-304.78793376 96.97227263 -299.58672143 88.9463552 -294 81 C-293.54496094 80.3512793 -293.08992188 79.70255859 -292.62109375 79.03417969 C-283.50625784 66.16804293 -273.28453738 53.95563087 -261 44 C-260.236875 43.236875 -259.47375 42.47375 -258.6875 41.6875 C-249.38455399 32.38455399 -238.97645316 25.18647028 -228 18 C-227.35256836 17.57541504 -226.70513672 17.15083008 -226.03808594 16.71337891 C-202.23930972 1.30693894 -175.45199562 -8.38316318 -148 -15 C-147.37802734 -15.16298584 -146.75605469 -15.32597168 -146.11523438 -15.49389648 C-99.75248674 -26.58692232 -42.90162622 -19.97144669 0 0 Z M61 147 C62 149 62 149 62 149 Z " fill="#9EC446" transform="translate(636,272)"/>
<path d="M0 0 C16.24011735 -0.55521769 36.11460107 1.92187117 50.7421875 9.34375 C53.61800316 10.79847547 56.49437417 12.25013046 59.3828125 13.6796875 C64.7909558 16.35658255 70.1006909 19.10173025 75.3046875 22.15625 C75.9646875 22.48625 76.6246875 22.81625 77.3046875 23.15625 C78.4576913 24.3092538 79.60887316 25.4641466 80.75 26.62890625 C84.5770338 30.38863041 88.66375717 33.90601736 92.9296875 37.15625 C96.09044277 39.81793865 98.89376577 42.79255852 101.3046875 46.15625 C101.3046875 46.81625 101.3046875 47.47625 101.3046875 48.15625 C101.9646875 48.15625 102.6246875 48.15625 103.3046875 48.15625 C103.9440625 49.125625 104.5834375 50.095 105.2421875 51.09375 C107.01529757 54.39880225 107.01529757 54.39880225 110.3046875 55.15625 C110.3046875 56.14625 110.3046875 57.13625 110.3046875 58.15625 C111.63148215 60.59460372 113.00265796 62.96555639 114.4296875 65.34375 C129.68472628 91.66176328 135.21967769 124.68918781 128.33984375 154.48046875 C127.99824219 155.69347656 127.65664063 156.90648437 127.3046875 158.15625 C127.10601074 158.86217285 126.90733398 159.5680957 126.70263672 160.29541016 C122.96802775 173.21687744 117.70914598 185.87227244 110.3046875 197.15625 C109.6446875 197.48625 108.9846875 197.81625 108.3046875 198.15625 C107.62863142 199.48484716 106.96386366 200.81919764 106.3046875 202.15625 C105.1284627 203.76357981 103.9183128 205.34649962 102.6796875 206.90625 C102.04804687 207.70546875 101.41640625 208.5046875 100.765625 209.328125 C100.28351563 209.93140625 99.80140625 210.5346875 99.3046875 211.15625 C100.2534375 210.970625 101.2021875 210.785 102.1796875 210.59375 C111.55876896 210.69266816 122.85377285 226.59099412 129.18576622 232.96216393 C131.29895595 235.08829432 133.41540883 237.21112971 135.53266907 239.33320618 C140.02201871 243.83389175 144.50739498 248.33852398 148.9921875 252.84375 C154.20496969 258.08022159 159.41941563 263.31501433 164.63810158 268.5456028 C166.71342289 270.62735985 168.78568744 272.71212627 170.85783386 274.79704285 C172.13904134 276.08188518 173.42039073 277.36658601 174.7019043 278.65112305 C175.26882492 279.22320999 175.83574554 279.79529694 176.41984558 280.38471985 C179.74638933 283.71169619 183.18128643 286.83142882 186.79613972 289.84356403 C195.23201534 297.18417045 197.39574135 304.96394426 198.15625 315.7421875 C198.20523437 316.53882813 198.25421875 317.33546875 198.3046875 318.15625 C197.6446875 318.15625 196.9846875 318.15625 196.3046875 318.15625 C196.2840625 318.960625 196.2634375 319.765 196.2421875 320.59375 C194.18835199 328.39832493 188.30214492 333.89225309 181.55859375 338 C175.33327484 341.19357781 169.10020718 342.08501136 162.3046875 340.15625 C156.42374115 337.38254993 151.71707298 333.93633427 147.3046875 329.15625 C146.3146875 328.351875 145.3246875 327.5475 144.3046875 326.71875 C141.23004184 324.09249017 138.8884511 321.25676632 136.3046875 318.15625 C134.32511808 316.46536778 132.32523554 314.79794528 130.3046875 313.15625 C128.62691186 311.50076685 126.96183361 309.83238315 125.3046875 308.15625 C124.35187796 307.2112597 123.39764858 306.26769924 122.44213867 305.32543945 C119.70557437 302.62419632 116.9748958 299.91709284 114.24633789 297.20776367 C113.06970282 296.04128189 111.8912935 294.87658729 110.71118164 293.71362305 C109.00199837 292.02856942 107.29924321 290.33725093 105.59765625 288.64453125 C105.06649704 288.12369461 104.53533783 287.60285797 103.98808289 287.0662384 C102.72175812 285.80030856 101.50767289 284.48251653 100.3046875 283.15625 C100.3046875 282.49625 100.3046875 281.83625 100.3046875 281.15625 C99.6446875 281.15625 98.9846875 281.15625 98.3046875 281.15625 C96.97265625 279.80078125 96.97265625 279.80078125 95.4921875 277.96875 C92.93848453 274.82625761 90.17068584 272.01719054 87.3046875 269.15625 C85.83231916 267.64219094 84.36729257 266.12124282 82.90234375 264.6000061 C80.64394934 262.26098557 78.36918993 259.93814992 76.09375 257.61572266 C74.89566082 256.38722346 73.70297822 255.15342943 72.515625 253.91455078 C70.79258606 252.11892788 69.05104241 250.3432295 67.3046875 248.5703125 C66.77746094 248.01211823 66.25023437 247.45392395 65.70703125 246.8788147 C64.03999922 245.14219044 64.03999922 245.14219044 61.3046875 243.15625 C58.6955932 243.07643705 58.6955932 243.07643705 56.3046875 244.15625 C55.14018066 244.51481079 55.14018066 244.51481079 53.95214844 244.88061523 C52.7576709 245.29355835 52.7576709 245.29355835 51.5390625 245.71484375 C50.64832031 246.01841797 49.75757813 246.32199219 48.83984375 246.63476562 C46.99824379 247.26886491 45.15708945 247.90426003 43.31640625 248.54101562 C11.95876825 259.21163633 -22.84970923 255.58380476 -52.40478516 241.06030273 C-67.50077572 233.2248983 -81.88118849 222.30797253 -92.6953125 209.15625 C-93.44683594 208.27710938 -94.19835937 207.39796875 -94.97265625 206.4921875 C-105.04723642 194.17350653 -117.6953125 175.61844963 -117.6953125 159.15625 C-118.6853125 159.48625 -119.6753125 159.81625 -120.6953125 160.15625 C-120.6953125 159.49625 -120.6953125 158.83625 -120.6953125 158.15625 C-120.0353125 158.15625 -119.3753125 158.15625 -118.6953125 158.15625 C-119.00275391 156.84914063 -119.00275391 156.84914063 -119.31640625 155.515625 C-123.30593746 137.87769752 -126.63065119 112.93928075 -119.625 95.55859375 C-118.62696906 92.97964825 -117.89895919 90.36169881 -117.15600586 87.70019531 C-111.4554306 67.80639954 -99.7937202 51.96270181 -85.6953125 37.15625 C-85.03917969 36.43566406 -84.38304687 35.71507812 -83.70703125 34.97265625 C-77.81238356 28.6993374 -70.78111732 23.97443084 -63.6953125 19.15625 C-62.64601563 18.43953125 -61.59671875 17.7228125 -60.515625 16.984375 C-56.33883275 14.27698058 -52.04292071 12.43026209 -47.4453125 10.53125 C-46.36765625 10.08523438 -45.29 9.63921875 -44.1796875 9.1796875 C-43.35984375 8.84195312 -42.54 8.50421875 -41.6953125 8.15625 C-41.6953125 7.49625 -41.6953125 6.83625 -41.6953125 6.15625 C-40.5609375 6.07375 -39.4265625 5.99125 -38.2578125 5.90625 C-33.53150878 5.40012614 -29.04487296 4.30588441 -24.4453125 3.15625 C-16.26333251 1.1469545 -8.39591559 0.48671974 0 0 Z M-56.6953125 57.15625 C-57.51128906 57.77242188 -58.32726562 58.38859375 -59.16796875 59.0234375 C-72.9535923 70.6570549 -81.26576526 88.04779627 -85.6953125 105.15625 C-85.94152344 106.07664062 -86.18773437 106.99703125 -86.44140625 107.9453125 C-90.75253699 127.15214326 -87.62434296 149.72792852 -78.6953125 167.15625 C-78.13070312 168.28289062 -77.56609375 169.40953125 -76.984375 170.5703125 C-72.40596871 179.31906534 -66.69411454 186.23619679 -59.6953125 193.15625 C-58.89222656 193.96964844 -58.08914063 194.78304687 -57.26171875 195.62109375 C-47.21650202 205.27043987 -33.33464836 213.07281562 -19.6953125 216.15625 C-19.06496094 216.32125 -18.43460938 216.48625 -17.78515625 216.65625 C6.13235822 222.21240581 32.06732028 218.62962143 53.01904297 205.73583984 C58.65642298 202.10146856 63.53555647 197.86792162 68.3046875 193.15625 C69.47451172 192.07730469 69.47451172 192.07730469 70.66796875 190.9765625 C83.62095823 178.74197412 92.05350089 161.6036117 95.3046875 144.15625 C95.3255197 142.1563585 95.33147081 140.15607066 95.3046875 138.15625 C95.6346875 137.82625 95.9646875 137.49625 96.3046875 137.15625 C96.4038793 135.54541255 96.4354857 133.93029356 96.4375 132.31640625 C96.43943359 130.8459082 96.43943359 130.8459082 96.44140625 129.34570312 C96.43753906 128.31380859 96.43367187 127.28191406 96.4296875 126.21875 C96.43355469 125.19072266 96.43742188 124.16269531 96.44140625 123.10351562 C96.44011719 122.12189453 96.43882812 121.14027344 96.4375 120.12890625 C96.43580811 118.77164429 96.43580811 118.77164429 96.43408203 117.38696289 C96.44965326 115.11729141 96.44965326 115.11729141 95.3046875 113.15625 C95.2015625 111.8775 95.0984375 110.59875 94.9921875 109.28125 C94.40432567 103.27526164 92.35713832 97.7981032 90.3046875 92.15625 C89.3146875 92.15625 88.3246875 92.15625 87.3046875 92.15625 C87.9646875 91.82625 88.6246875 91.49625 89.3046875 91.15625 C85.91033076 79.76212788 78.51207775 70.52572515 70.3046875 62.15625 C69.50675781 61.32996094 68.70882812 60.50367188 67.88671875 59.65234375 C60.71347072 52.71784225 51.71056966 45.71439621 42.3046875 42.15625 C40.0582144 42.41326447 40.0582144 42.41326447 38.3046875 43.15625 C38.3046875 42.16625 38.3046875 41.17625 38.3046875 40.15625 C4.35162124 28.03676313 -29.46438624 33.25055236 -56.6953125 57.15625 Z " fill="#4DB870" transform="translate(537.6953125,361.84375)"/>
<path d="M0 0 C0.66761415 -0.00815105 1.33522831 -0.01630211 2.0230732 -0.02470016 C5.55304806 -0.06621063 9.08287206 -0.09491019 12.61303711 -0.11376953 C16.23959482 -0.13593166 19.86370896 -0.2048145 23.48940182 -0.28411293 C26.29745262 -0.33660714 29.10492535 -0.35316579 31.91342354 -0.36033249 C33.89445728 -0.37468809 35.87509388 -0.4274757 37.85545349 -0.48110962 C44.16969942 -0.4507789 48.11188643 -0.24285908 52.72875977 4.31884766 C53.86322961 5.67840861 54.96827234 7.063344 56.03515625 8.4765625 C57.03392065 9.6026596 58.03377621 10.72779072 59.03515625 11.8515625 C61.03515625 14.4765625 61.03515625 14.4765625 61.03515625 16.4765625 C61.69515625 16.4765625 62.35515625 16.4765625 63.03515625 16.4765625 C64.515625 17.98046875 64.515625 17.98046875 66.22265625 20.0390625 C85.19759099 42.24791835 114.98229181 62.39480575 143.87109375 68.90625 C146.03515625 69.4765625 146.03515625 69.4765625 147.80859375 70.421875 C171.78087684 81.77716699 209.64266056 80.47926953 235.03515625 74.4765625 C235.78893555 74.29963867 236.54271484 74.12271484 237.31933594 73.94042969 C247.93687735 71.36715364 258.00488692 67.7815896 268.03515625 63.4765625 C268.03515625 62.8165625 268.03515625 62.1565625 268.03515625 61.4765625 C271.92132254 60.90982992 273.94740419 60.75580853 277.28125 62.96484375 C279.32729706 64.72641368 281.26131749 66.44010345 283.03515625 68.4765625 C283.03515625 69.1365625 283.03515625 69.7965625 283.03515625 70.4765625 C283.62141785 70.73914352 284.20767944 71.00172455 284.81170654 71.27226257 C287.14783068 72.537591 288.71874818 73.88757659 290.61035156 75.74536133 C291.290755 76.40977737 291.97115845 77.07419342 292.67218018 77.75874329 C293.39524353 78.47644394 294.11830688 79.19414459 294.86328125 79.93359375 C295.61228699 80.67357101 296.36129272 81.41354828 297.13299561 82.1759491 C298.71248001 83.74093989 300.28917936 85.30874584 301.86328125 86.87915039 C304.27798907 89.28193072 306.71071286 91.66542736 309.14453125 94.04882812 C310.67692769 95.57176397 312.20821615 97.09581566 313.73828125 98.62109375 C314.46944153 99.33272171 315.20060181 100.04434967 315.95391846 100.77754211 C316.62171326 101.45141464 317.28950806 102.12528717 317.97753906 102.81958008 C318.56948059 103.40645096 319.16142212 103.99332184 319.77130127 104.59797668 C321.41658102 107.04350979 321.38804694 108.58662259 321.03515625 111.4765625 C319.4597168 113.07519531 319.4597168 113.07519531 317.234375 114.4296875 C315.99373291 115.18668945 315.99373291 115.18668945 314.72802734 115.95898438 C277.9492161 136.6858285 238.72786775 145.09680666 197.03515625 148.4765625 C197.03515625 148.8065625 197.03515625 149.1365625 197.03515625 149.4765625 C195.05515625 149.4765625 193.07515625 149.4765625 191.03515625 149.4765625 C191.03515625 149.1465625 191.03515625 148.8165625 191.03515625 148.4765625 C189.38515625 148.1465625 187.73515625 147.8165625 186.03515625 147.4765625 C185.70515625 148.1365625 185.37515625 148.7965625 185.03515625 149.4765625 C184.37515625 148.8165625 183.71515625 148.1565625 183.03515625 147.4765625 C180.45656648 146.98237675 180.45656648 146.98237675 177.41796875 146.765625 C176.26393555 146.65766602 175.10990234 146.54970703 173.92089844 146.43847656 C172.05933105 146.2717041 172.05933105 146.2717041 170.16015625 146.1015625 C136.64770433 142.76475135 104.76294484 133.41286508 75.03515625 117.4765625 C74.44573242 117.16251465 73.85630859 116.8484668 73.24902344 116.52490234 C58.30087768 108.48454873 44.67540056 98.77653964 32.03515625 87.4765625 C31.52500977 87.0228125 31.01486328 86.5690625 30.48925781 86.1015625 C26.95403665 82.94519509 23.4823408 79.72888601 20.03515625 76.4765625 C19.10832031 75.60386719 18.18148437 74.73117187 17.2265625 73.83203125 C10.63175691 67.44302101 4.92440229 60.63452134 -0.58105469 53.31347656 C-1.96986881 51.46989197 -3.37686696 49.64123226 -4.78515625 47.8125 C-10.20555135 40.68366553 -14.92907146 33.44728349 -19.06103516 25.49072266 C-21.0494334 21.44385975 -21.0494334 21.44385975 -24.96484375 19.4765625 C-24.63484375 19.1465625 -24.30484375 18.8165625 -23.96484375 18.4765625 C-24.62484375 17.8165625 -25.28484375 17.1565625 -25.96484375 16.4765625 C-25.30484375 16.4765625 -24.64484375 16.4765625 -23.96484375 16.4765625 C-24.31546875 15.9403125 -24.66609375 15.4040625 -25.02734375 14.8515625 C-26.30220133 11.62192329 -25.93042202 9.78711657 -24.96484375 6.4765625 C-19.36361765 -1.27898133 -8.52421183 0.09725137 0 0 Z " fill="#34A868" transform="translate(339.96484375,594.5234375)"/>
<path d="M0 0 C1.08188599 -0.00832352 2.16377197 -0.01664703 3.27844238 -0.02522278 C6.8537964 -0.04931235 10.42896798 -0.05809334 14.00439453 -0.06469727 C16.49154719 -0.0736637 18.97869929 -0.08278555 21.46585083 -0.09205627 C26.67939566 -0.10854553 31.89287627 -0.11624641 37.10644531 -0.11914062 C42.45688529 -0.12237366 47.80691635 -0.14351546 53.15722656 -0.18066406 C59.62102165 -0.22487061 66.08443155 -0.24460478 72.54837418 -0.24586678 C75.00993749 -0.25007153 77.47150114 -0.2625159 79.93297958 -0.28338432 C83.37764601 -0.31026577 86.82090693 -0.30548181 90.265625 -0.29296875 C91.27988556 -0.30780304 92.29414612 -0.32263733 93.33914185 -0.33792114 C99.96537873 -0.26944377 103.27921029 0.88432808 108.26220703 5.30639648 C110.58139904 8.23059511 110.7925406 11.49908395 110.72314453 15.20483398 C109.87024585 19.09347374 107.16397204 21.71285004 104.26220703 24.30639648 C101.8587598 25.5081201 100.34313056 25.44260793 97.65826416 25.46029663 C96.2030838 25.47319733 96.2030838 25.47319733 94.71850586 25.48635864 C93.11640259 25.49274857 93.11640259 25.49274857 91.48193359 25.49926758 C89.79883087 25.51153381 89.79883087 25.51153381 88.08172607 25.52404785 C84.35543355 25.54893175 80.62917919 25.56542548 76.90283203 25.57983398 C74.99715076 25.5878195 74.99715076 25.5878195 73.05297089 25.59596634 C67.71373661 25.6172023 62.37451574 25.63633188 57.03525162 25.64758873 C49.38695711 25.66382027 41.73917126 25.6969763 34.09106851 25.75398958 C28.06292595 25.79739179 22.03501459 25.81333711 16.00670624 25.81972122 C13.44382863 25.82644634 10.88095878 25.84170082 8.3181839 25.86561203 C4.73174748 25.89716515 1.14659689 25.89731428 -2.43994141 25.88989258 C-3.49991333 25.90629791 -4.55988525 25.92270325 -5.65197754 25.93960571 C-13.688261 25.87148904 -13.688261 25.87148904 -17.38140869 22.89492798 C-21.04029275 18.8755765 -21.1390499 16.15208218 -21.08544922 10.85327148 C-20.51115696 6.64609676 -18.89151321 5.10970337 -15.73779297 2.30639648 C-10.82833717 -0.47837384 -5.47976926 0.00357677 0 0 Z " fill="#84B544" transform="translate(258.73779296875,542.693603515625)"/>
<path d="M0 0 C1.49848954 -0.00067687 2.99697897 -0.00165005 4.49546814 -0.00289917 C7.63981164 -0.00436858 10.78412664 -0.00225299 13.9284668 0.00244141 C17.07822569 0.00692733 20.2279269 0.00707925 23.37768555 0.00244141 C33.3642929 -0.01219282 43.34965352 0.01522143 53.33585358 0.11070251 C54.89620333 0.12559544 56.45656278 0.13950198 58.01692963 0.15248108 C62.64856055 0.19240624 67.27891759 0.25486413 71.90975761 0.34988785 C73.34342249 0.37672544 74.77722428 0.39713591 76.21107674 0.41064072 C78.18974523 0.43102219 80.16807324 0.47884495 82.14624023 0.52783203 C83.82024147 0.55805954 83.82024147 0.55805954 85.52806091 0.58889771 C89.91727495 1.35302777 93.26070271 3.361633 96.02734375 6.8828125 C97.005116 10.40279261 97.42751553 13.56834739 96.65234375 17.1328125 C94.30088762 21.00492638 91.98486339 23.68863929 87.65234375 25.1328125 C85.86878627 25.24375891 84.08153183 25.29905282 82.29467773 25.32226562 C81.20021835 25.33898315 80.10575897 25.35570068 78.97813416 25.3729248 C77.20618431 25.39328796 77.20618431 25.39328796 75.3984375 25.4140625 C73.58074608 25.44167664 73.58074608 25.44167664 71.72633362 25.46984863 C66.52996796 25.54866226 61.33347075 25.61637521 56.13696289 25.68505859 C52.34905399 25.73669144 48.56125975 25.79397292 44.7734375 25.8515625 C43.59011337 25.86513794 42.40678925 25.87871338 41.18760681 25.8927002 C39.55064598 25.91777649 39.55064598 25.91777649 37.88061523 25.94335938 C36.91703598 25.95588745 35.95345673 25.96841553 34.9606781 25.98132324 C32.62531211 25.98479458 32.62531211 25.98479458 30.65234375 27.1328125 C30.65234375 26.4728125 30.65234375 25.8128125 30.65234375 25.1328125 C24.71234375 25.4628125 18.77234375 25.7928125 12.65234375 26.1328125 C12.65234375 26.4628125 12.65234375 26.7928125 12.65234375 27.1328125 C10.34234375 27.1328125 8.03234375 27.1328125 5.65234375 27.1328125 C5.65234375 26.8028125 5.65234375 26.4728125 5.65234375 26.1328125 C-3.91765625 25.8028125 -13.48765625 25.4728125 -23.34765625 25.1328125 C-23.67765625 25.7928125 -24.00765625 26.4528125 -24.34765625 27.1328125 C-25.00765625 27.1328125 -25.66765625 27.1328125 -26.34765625 27.1328125 C-26.67765625 26.1428125 -27.00765625 25.1528125 -27.34765625 24.1328125 C-28.9940559 22.77453279 -30.66061432 21.44026999 -32.34765625 20.1328125 C-34.19876208 16.43060084 -33.8122042 12.17374333 -33.34765625 8.1328125 C-31.20298362 4.45623084 -29.19419683 2.78447091 -25.34765625 1.1328125 C-17.09563049 -0.52439939 -8.3724121 -0.01356198 0 0 Z " fill="#90BA43" transform="translate(269.34765625,444.8671875)"/>
<path d="M0 0 C0.82975342 -0.0065712 1.65950684 -0.0131424 2.5144043 -0.01991272 C5.25586035 -0.03959786 7.9972618 -0.05129613 10.73876953 -0.0612793 C11.6764127 -0.06535482 12.61405586 -0.06943035 13.58011246 -0.07362938 C18.54071074 -0.09446726 23.50128152 -0.10878023 28.46191406 -0.11816406 C33.58214481 -0.12923846 38.70194219 -0.16365676 43.82201958 -0.20333576 C47.76316126 -0.22948587 51.70419926 -0.23785435 55.64542007 -0.24144554 C57.5328477 -0.24631372 59.42027062 -0.2579343 61.30761337 -0.27648354 C63.95021709 -0.30084649 66.59169322 -0.29991561 69.234375 -0.29296875 C70.01068268 -0.30577881 70.78699036 -0.31858887 71.58682251 -0.33178711 C76.79406606 -0.2819883 79.75008948 0.86381688 83.74658203 4.17700195 C86.11915408 7.62105816 86.74658203 9.54804769 86.74658203 13.73950195 C85.5547415 17.83645377 84.0357902 19.51430962 80.74658203 22.17700195 C79.26158203 22.67200195 79.26158203 22.67200195 77.74658203 23.17700195 C77.41658203 23.83700195 77.08658203 24.49700195 76.74658203 25.17700195 C65.89779973 25.11575128 55.04925722 25.03861632 44.20073509 24.94128704 C39.16313659 24.89658872 34.12561886 24.85733132 29.08789062 24.83056641 C24.22480393 24.80452819 19.36202815 24.7641219 14.49913406 24.71381569 C12.64526872 24.69715052 10.79134961 24.68563406 8.93741989 24.67938805 C6.33750686 24.66974317 3.73838863 24.64167953 1.13867188 24.609375 C0.37478149 24.61081009 -0.38910889 24.61224518 -1.17614746 24.61372375 C-5.93235976 24.53032374 -9.20723003 23.68302665 -13.25341797 21.17700195 C-16.45485191 17.54871015 -16.77270286 14.07231856 -16.60888672 9.3996582 C-16.04917939 5.89994977 -14.59379158 3.77741708 -12.25341797 1.17700195 C-8.26246806 -0.17570215 -4.16909096 0.0143656 0 0 Z " fill="#8EB943" transform="translate(300.25341796875,493.822998046875)"/>
<path d="M0 0 C16.24011735 -0.55521769 36.11460107 1.92187117 50.7421875 9.34375 C53.61800316 10.79847547 56.49437417 12.25013046 59.3828125 13.6796875 C64.7909558 16.35658255 70.1006909 19.10173025 75.3046875 22.15625 C75.9646875 22.48625 76.6246875 22.81625 77.3046875 23.15625 C78.4576913 24.3092538 79.60887316 25.4641466 80.75 26.62890625 C84.5770338 30.38863041 88.66375717 33.90601736 92.9296875 37.15625 C96.09044277 39.81793865 98.89376577 42.79255852 101.3046875 46.15625 C101.3046875 46.81625 101.3046875 47.47625 101.3046875 48.15625 C101.9646875 48.15625 102.6246875 48.15625 103.3046875 48.15625 C103.9440625 49.125625 104.5834375 50.095 105.2421875 51.09375 C107.01529757 54.39880225 107.01529757 54.39880225 110.3046875 55.15625 C110.3046875 56.14625 110.3046875 57.13625 110.3046875 58.15625 C110.9234375 59.1771875 110.9234375 59.1771875 111.5546875 60.21875 C113.98097377 64.29144482 115.92226784 68.61516216 117.3046875 73.15625 C116.9746875 73.81625 116.6446875 74.47625 116.3046875 75.15625 C115.86640625 74.33125 115.428125 73.50625 114.9765625 72.65625 C98.62300222 42.87415649 74.68718351 21.10799439 42.3046875 10.15625 C41.26570312 9.79789062 40.22671875 9.43953125 39.15625 9.0703125 C22.37634055 3.76929597 1.3730884 0.02062495 -15.6953125 5.15625 C-18.04569645 5.6136363 -20.40013609 6.05057671 -22.7578125 6.46875 C-37.95868382 9.37309718 -51.65652019 15.74224507 -64.63671875 24.0546875 C-66.6953125 25.15625 -66.6953125 25.15625 -69.6953125 25.15625 C-63.16293405 18.22796983 -56.20750765 14.15041756 -47.4453125 10.53125 C-46.36765625 10.08523438 -45.29 9.63921875 -44.1796875 9.1796875 C-43.35984375 8.84195312 -42.54 8.50421875 -41.6953125 8.15625 C-41.6953125 7.49625 -41.6953125 6.83625 -41.6953125 6.15625 C-39.99375 6.0325 -39.99375 6.0325 -38.2578125 5.90625 C-33.53150878 5.40012614 -29.04487296 4.30588441 -24.4453125 3.15625 C-16.26333251 1.1469545 -8.39591559 0.48671974 0 0 Z " fill="#65C16F" transform="translate(537.6953125,361.84375)"/>
<path d="M0 0 C-38.2541367 20.90483618 -76.72339577 30.49184832 -120 34 C-120 34.33 -120 34.66 -120 35 C-121.98 35 -123.96 35 -126 35 C-126 34.67 -126 34.34 -126 34 C-127.65 33.67 -129.3 33.34 -131 33 C-131.33 33.66 -131.66 34.32 -132 35 C-132.66 34.34 -133.32 33.68 -134 33 C-136.90672543 32.43996346 -136.90672543 32.43996346 -140.3203125 32.1484375 C-141.57714844 32.01953125 -142.83398438 31.890625 -144.12890625 31.7578125 C-145.46091924 31.6300179 -146.79295076 31.50241622 -148.125 31.375 C-149.4649253 31.24039268 -150.80477054 31.10498575 -152.14453125 30.96875 C-155.42898281 30.63794193 -158.71403761 30.31538666 -162 30 C-162 29.67 -162 29.34 -162 29 C-157.45457879 28.92668675 -153.09010113 28.9773134 -148.57421875 29.5 C-142.66357998 30.10012233 -136.8035455 30.12645388 -130.8671875 30.09765625 C-129.74933868 30.0962413 -128.63148987 30.09482635 -127.47976685 30.09336853 C-123.94481617 30.08781622 -120.40993121 30.07527279 -116.875 30.0625 C-114.46354259 30.05747883 -112.05208417 30.05291701 -109.640625 30.04882812 C-103.76039463 30.03786246 -97.88020201 30.02117253 -92 30 C-92 29.34 -92 28.68 -92 28 C-88.3333807 27.52047043 -84.666696 27.04144267 -81 26.5625 C-79.97003906 26.42779297 -78.94007813 26.29308594 -77.87890625 26.15429688 C-72.2545318 25.41990403 -66.6291486 24.69687777 -61 24 C-61 23.34 -61 22.68 -61 22 C-58.14996588 20.98665453 -55.29591336 19.98919371 -52.4375 19 C-51.63763672 18.71382812 -50.83777344 18.42765625 -50.01367188 18.1328125 C-45.12174693 16.45558109 -41.17046121 15.66686961 -36 16 C-36 15.34 -36 14.68 -36 14 C-32.21023367 12.24586407 -28.41784593 10.49746594 -24.625 8.75 C-23.56410156 8.25886719 -22.50320313 7.76773438 -21.41015625 7.26171875 C-16.41528711 4.96346608 -11.40891029 2.69931765 -6.3359375 0.578125 C-5.54493652 0.2471582 -4.75393555 -0.08380859 -3.93896484 -0.42480469 C-2 -1 -2 -1 0 0 Z " fill="#49A85B" transform="translate(657,709)"/>
<path d="M0 0 C0.73522385 0.70098312 1.47044769 1.40196625 2.22795105 2.12419128 C3.10166351 2.95165863 3.97537598 3.77912598 4.87556458 4.63166809 C5.8688861 5.60402767 6.86017718 6.57846441 7.84977722 7.55461121 C8.38867458 8.08277309 8.92757195 8.61093498 9.48279953 9.15510178 C13.25867849 12.86398126 16.99991306 16.60649867 20.73085594 20.36052513 C22.84404567 22.48665553 24.96049855 24.60949092 27.07775879 26.73156738 C31.56710843 31.23225295 36.0524847 35.73688519 40.53727722 40.24211121 C45.75005941 45.47858279 50.96450535 50.71337554 56.1831913 55.943964 C58.25851261 58.02572105 60.33077716 60.11048748 62.40292358 62.19540405 C63.68413106 63.48024638 64.96548045 64.76494722 66.24699402 66.04948425 C67.09737495 66.90761467 67.09737495 66.90761467 67.9649353 67.78308105 C71.29147905 71.1100574 74.72637615 74.22979003 78.34122944 77.24192524 C86.77710506 84.58253166 88.94083107 92.36230547 89.70133972 103.14054871 C89.7503241 103.93718933 89.79930847 104.73382996 89.84977722 105.55461121 C89.18977722 105.55461121 88.52977722 105.55461121 87.84977722 105.55461121 C87.35477722 107.03961121 87.35477722 107.03961121 86.84977722 108.55461121 C86.08797293 105.50739406 85.86746907 103.0327017 85.97477722 99.86711121 C86.07164567 94.80089135 84.4835396 90.30030192 82.84977722 85.55461121 C82.18977722 85.55461121 81.52977722 85.55461121 80.84977722 85.55461121 C79.65055847 84.33195496 79.65055847 84.33195496 78.16227722 82.49211121 C72.7277548 76.08098327 66.65533391 70.27614031 60.68327332 64.37223816 C60.0782196 63.77242126 59.47316589 63.17260437 58.84977722 62.55461121 C58.04387146 61.75925964 57.2379657 60.96390808 56.40763855 60.14445496 C53.99239539 57.69901261 51.69313361 55.18902087 49.40055847 52.62882996 C41.20115536 43.60211708 32.57260591 34.98042095 23.97795105 26.33268738 C22.00150801 24.34275775 20.03265938 22.34573032 18.06974792 20.342453 C15.21232218 17.4263547 12.33478758 14.53090673 9.45524597 11.63664246 C8.58014877 10.73887589 7.70505157 9.84110931 6.80343628 8.9161377 C5.97850174 8.09405319 5.1535672 7.27196869 4.30363464 6.42497253 C3.58624619 5.69949722 2.86885773 4.97402191 2.12973022 4.2265625 C-1.8014175 1.34374539 -5.30281001 1.45893557 -10.02522278 1.99211121 C-11.57209778 2.27054871 -11.57209778 2.27054871 -13.15022278 2.55461121 C-11.15022278 -0.44538879 -11.15022278 -0.44538879 -9.33772278 -1.13288879 C-3.026581 -2.03448048 -3.026581 -2.03448048 0 0 Z " fill="#5DAE59" transform="translate(646.1502227783203,574.4453887939453)"/>
<path d="M0 0 C2.31 0 4.62 0 7 0 C7 0.99 7 1.98 7 3 C-18.36683513 13.24114667 -18.36683513 13.24114667 -30 16 C-31.29744141 16.31710937 -31.29744141 16.31710937 -32.62109375 16.640625 C-44.84463002 19.24533592 -57.74032854 19.07334178 -70.1875 19.125 C-70.95255859 19.12967285 -71.71761719 19.1343457 -72.50585938 19.13916016 C-77.41783464 19.12514442 -82.13663457 18.69397966 -87 18 C-87 17.67 -87 17.34 -87 17 C-84.1669103 16.82755106 -81.33377212 16.66061647 -78.5 16.5 C-77.63503906 16.45085449 -76.77007813 16.40170898 -75.87890625 16.35107422 C-70.56382064 16.07107613 -65.3201714 16.00605308 -60 16.125 C-39.17785074 16.22890294 -18.97772137 10.14530519 0 2 C0 1.34 0 0.68 0 0 Z " fill="#47A961" transform="translate(608,656)"/>
<path d="M0 0 C0.33 0 0.66 0 1 0 C1.0093457 0.86463867 1.01869141 1.72927734 1.02832031 2.62011719 C1.32081331 24.2129828 1.66177965 46.02129047 11 66 C11.66 66.33 12.32 66.66 13 67 C14.08498371 68.90231892 15.09548618 70.84758494 16.0625 72.8125 C16.58972656 73.87082031 17.11695313 74.92914062 17.66015625 76.01953125 C18.72736146 78.39351834 19.50231085 80.46239975 20 83 C20.66 83 21.32 83 22 83 C22.5775 84.051875 23.155 85.10375 23.75 86.1875 C26.05329269 90.22234606 28.7103593 93.7103593 32 97 C31.34 97.99 30.68 98.98 30 100 C18.687104 87.37662669 4 66.56935308 4 49 C2.515 49.495 2.515 49.495 1 50 C1 49.34 1 48.68 1 48 C1.66 48 2.32 48 3 48 C2.79503906 47.12859375 2.59007812 46.2571875 2.37890625 45.359375 C-1.02793092 30.29756858 -2.0805832 15.34430113 0 0 Z " fill="#43A164" transform="translate(416,472)"/>
<path d="M0 0 C0.66 0.33 1.32 0.66 2 1 C1.14277344 1.845625 0.28554688 2.69125 -0.59765625 3.5625 C-20.18173239 22.95468771 -32.92674121 42.17709313 -40 69 C-40.33 69 -40.66 69 -41 69 C-40.58261352 57.31317864 -35.3875056 46.21768304 -30 36 C-29.566875 34.88625 -29.13375 33.7725 -28.6875 32.625 C-22.86907595 20.12616315 -12.36418742 8.68753855 -1 1 C-0.67 0.67 -0.34 0.34 0 0 Z " fill="#4FC17D" transform="translate(461,392)"/>
<path d="M0 0 C0.495 1.485 0.495 1.485 1 3 C-3.24745888 10.79690879 -10.49240717 16.86661708 -19 19.4375 C-27.1031459 20.95884162 -32.93323327 19.0498843 -39.7734375 14.61328125 C-44.28272337 11.34602675 -47.61763722 7.38454434 -51 3 C-46.57238086 4.39153744 -44.0443745 6.52071486 -41 10 C-41 10.66 -41 11.32 -41 12 C-40.236875 12.12375 -39.47375 12.2475 -38.6875 12.375 C-36 13 -36 13 -33 15 C-33 15.66 -33 16.32 -33 17 C-27.72 17 -22.44 17 -17 17 C-17 16.34 -17 15.68 -17 15 C-16.32453125 14.72027344 -15.6490625 14.44054687 -14.953125 14.15234375 C-8.614637 11.30368802 -5.91137269 9.288565 -3 3 C-1.25 1.0625 -1.25 1.0625 0 0 Z " fill="#4F9D4F" transform="translate(732,683)"/>
<path d="M0 0 C4.532186 -0.07309977 8.88257324 -0.02506554 13.38476562 0.5 C19.52502036 1.12326676 25.62230409 1.12583367 31.7890625 1.09765625 C32.97349945 1.0962413 34.1579364 1.09482635 35.37826538 1.09336853 C39.12720361 1.08781209 42.8760801 1.07526782 46.625 1.0625 C49.18098872 1.05747937 51.73697838 1.05291745 54.29296875 1.04882812 C60.52866658 1.03785696 66.76432887 1.02116276 73 1 C73 1.33 73 1.66 73 2 C62.77 2.99 52.54 3.98 42 5 C42 5.33 42 5.66 42 6 C40.02 6 38.04 6 36 6 C36 5.67 36 5.34 36 5 C33.525 4.505 33.525 4.505 31 4 C30.67 4.66 30.34 5.32 30 6 C29.34 5.34 28.68 4.68 28 4 C25.09327457 3.43996346 25.09327457 3.43996346 21.6796875 3.1484375 C20.42285156 3.01953125 19.16601562 2.890625 17.87109375 2.7578125 C16.53908076 2.6300179 15.20704924 2.50241622 13.875 2.375 C12.5350747 2.24039268 11.19522946 2.10498575 9.85546875 1.96875 C6.57101719 1.63794193 3.28596239 1.31538666 0 1 C0 0.67 0 0.34 0 0 Z " fill="#348E50" transform="translate(495,738)"/>
<path d="M0 0 C1.28488815 -0.00287018 1.28488815 -0.00287018 2.59573364 -0.00579834 C4.39927465 -0.00715298 6.20282565 -0.00350716 8.00634766 0.00488281 C10.74273999 0.01556615 13.47847195 0.00497658 16.21484375 -0.0078125 C17.97656393 -0.00649026 19.7382837 -0.00392654 21.5 0 C22.30654022 -0.00404846 23.11308044 -0.00809692 23.94406128 -0.01226807 C29.47905071 0.03260887 34.5305294 0.86733195 39.8828125 2.265625 C39.8828125 2.595625 39.8828125 2.925625 39.8828125 3.265625 C21.4028125 3.265625 2.9228125 3.265625 -16.1171875 3.265625 C-16.1171875 2.935625 -16.1171875 2.605625 -16.1171875 2.265625 C-10.61164752 0.4179067 -5.78591532 -0.02889759 0 0 Z " fill="#B2D14A" transform="translate(527.1171875,252.734375)"/>
<path d="M0 0 C14.15548891 0.95222666 27.34159017 3.15627994 41 7 C41 7.66 41 8.32 41 9 C41.62648438 9.12117188 42.25296875 9.24234375 42.8984375 9.3671875 C43.71570313 9.53476562 44.53296875 9.70234375 45.375 9.875 C46.18710937 10.03742188 46.99921875 10.19984375 47.8359375 10.3671875 C50 11 50 11 52 13 C46.89544945 12.39168569 42.16981229 11.24125028 37.25 9.75 C25.0484499 6.18516089 12.50980841 4.16574839 0 2 C0 1.34 0 0.68 0 0 Z " fill="#ADCB47" transform="translate(568,255)"/>
<path d="M0 0 C2.45504455 3.68256683 3.12781158 7.29893818 4 11.5625 C4.17370117 12.40731934 4.34740234 13.25213867 4.52636719 14.12255859 C8.06881101 31.97767178 9.19103693 49.88481966 7 68 C6.67 68 6.34 68 6 68 C6 56.12 6 44.24 6 32 C5.34 31.67 4.68 31.34 4 31 C4.04125 29.88109375 4.0825 28.7621875 4.125 27.609375 C4.125 22.64801156 3.11846658 18.06394064 2 13.25 C1.62130689 11.58937954 1.24617144 9.92794283 0.875 8.265625 C0.70742188 7.54149414 0.53984375 6.81736328 0.3671875 6.07128906 C0 4 0 4 0 0 Z " fill="#85B046" transform="translate(708,444)"/>
<path d="M0 0 C1.76025107 2.6403766 3.46070032 5.29852805 5.125 8 C5.66382813 8.86625 6.20265625 9.7325 6.7578125 10.625 C8 13 8 13 8 16 C8.66 16 9.32 16 10 16 C10.5775 17.051875 11.155 18.10375 11.75 19.1875 C14.05329269 23.22234606 16.7103593 26.7103593 20 30 C19.34 30.99 18.68 31.98 18 33 C12.54553919 26.91369858 8.00589948 20.72989535 4 13.625 C3.61465088 12.94759766 3.22930176 12.27019531 2.83227539 11.57226562 C0.92686809 8.10273084 -0.63923383 5.01352368 -1 1 C-0.67 0.67 -0.34 0.34 0 0 Z " fill="#3CAC6E" transform="translate(428,539)"/>
<path d="M0 0 C0.33 0 0.66 0 1 0 C4.61304073 22.64602312 4.61304073 47.35397688 1 70 C0.67 70 0.34 70 0 70 C-0.33 65.71 -0.66 61.42 -1 57 C-0.34 57 0.32 57 1 57 C1.02501716 52.23519254 1.04300757 47.47042466 1.05493164 42.70556641 C1.05991102 41.08999972 1.06669694 39.47443742 1.07543945 37.85888672 C1.12013179 29.37785803 1.09888187 20.99247737 0.22265625 12.54492188 C-0.14295162 8.36608807 -0.08344426 4.1907564 0 0 Z " fill="#83AA3D" transform="translate(777,458)"/>
<path d="M0 0 C3.05474005 1.36818918 5.19189144 2.92810437 7.57519531 5.26879883 C8.25559875 5.93321487 8.9360022 6.59763092 9.63702393 7.28218079 C10.36008728 7.99988144 11.08315063 8.71758209 11.828125 9.45703125 C12.57713074 10.19700851 13.32613647 10.93698578 14.09783936 11.6993866 C15.67732376 13.26437739 17.25402311 14.83218334 18.828125 16.40258789 C21.24283282 18.80536822 23.67555661 21.18886486 26.109375 23.57226562 C27.64177144 25.09520147 29.1730599 26.61925316 30.703125 28.14453125 C31.43428528 28.85615921 32.16544556 29.56778717 32.91876221 30.30097961 C33.58655701 30.97485214 34.25435181 31.64872467 34.94238281 32.34301758 C35.53432434 32.92988846 36.12626587 33.51675934 36.73614502 34.12141418 C38.35730509 36.53109595 38.23931792 38.15545314 38 41 C36.68 41.66 35.36 42.32 34 43 C34.66 42.01 35.32 41.02 36 40 C35.90718709 36.3416244 33.7637922 34.44838679 31.24609375 31.98242188 C30.75238281 31.51384766 30.25867188 31.04527344 29.75 30.5625 C29.27175781 30.09779297 28.79351563 29.63308594 28.30078125 29.15429688 C26.87119725 27.7653921 25.43561902 26.38266586 24 25 C22.33043227 23.33623946 20.66430428 21.66902571 19 20 C17.45219904 18.46316277 15.90397614 16.92675044 14.35546875 15.390625 C12.63274964 13.67714653 10.91009508 11.96360316 9.1875 10.25 C8.30384766 9.37472656 7.42019531 8.49945312 6.50976562 7.59765625 C5.67509766 6.76621094 4.84042969 5.93476562 3.98046875 5.078125 C3.21629639 4.31918945 2.45212402 3.56025391 1.66479492 2.77832031 C0 1 0 1 0 0 Z " fill="#4A9F57" transform="translate(623,665)"/>
<path d="M0 0 C0 0.33 0 0.66 0 1 C-10.93197404 3.21652229 -21.611553 4.07977429 -32.75 4.125 C-33.93819336 4.13200928 -33.93819336 4.13200928 -35.15039062 4.13916016 C-40.18441889 4.12546928 -45.01664874 3.7167834 -50 3 C-50 2.67 -50 2.34 -50 2 C-39.48804451 1.36014184 -29.04826089 0.88622158 -18.515625 1.0625 C-12.27467249 0.95154973 -6.27366323 -0.11006427 0 0 Z " fill="#42A15F" transform="translate(571,671)"/>
<path d="M0 0 C3.48729302 1.33811557 6.77920551 2.85896732 10.08203125 4.6015625 C11.01337891 5.09140625 11.94472656 5.58125 12.90429688 6.0859375 C14.34385742 6.84777344 14.34385742 6.84777344 15.8125 7.625 C16.79154297 8.140625 17.77058594 8.65625 18.77929688 9.1875 C21.18736525 10.4561409 23.594213 11.72703966 26 13 C26 13.66 26 14.32 26 15 C19.72191501 14.59328021 14.96057218 11.48585472 9.625 8.4375 C8.69816406 7.91736328 7.77132813 7.39722656 6.81640625 6.86132812 C4.53965346 5.58212166 2.26786477 4.29487762 0 3 C0 2.01 0 1.02 0 0 Z " fill="#2C9C5F" transform="translate(404,703)"/>
<path d="M0 0 C6.93 0 13.86 0 21 0 C21 0.33 21 0.66 21 1 C20.35450195 1.11593506 19.70900391 1.23187012 19.04394531 1.35131836 C16.11237767 1.87865267 13.18118703 2.40805434 10.25 2.9375 C9.23421875 3.11990234 8.2184375 3.30230469 7.171875 3.49023438 C5.70234375 3.75610352 5.70234375 3.75610352 4.203125 4.02734375 C3.30239258 4.18968506 2.40166016 4.35202637 1.47363281 4.51928711 C-0.70904507 4.94345734 -2.84484331 5.45716846 -5 6 C-6.58025005 6.21192095 -8.16398461 6.39923371 -9.75 6.5625 C-10.94882812 6.68818359 -10.94882812 6.68818359 -12.171875 6.81640625 C-13.07679688 6.90728516 -13.07679688 6.90728516 -14 7 C-11.48933531 3.94093074 -9.09940067 3.24808722 -5.3125 2.3125 C-4.31863281 2.06113281 -3.32476562 1.80976563 -2.30078125 1.55078125 C-1.54152344 1.36902344 -0.78226562 1.18726563 0 1 C0 0.67 0 0.34 0 0 Z " fill="#B0CF49" transform="translate(488,256)"/>
<path d="M0 0 C0 0.66 0 1.32 0 2 C18.15 2 36.3 2 55 2 C55 2.33 55 2.66 55 3 C47.50720986 3.2003299 40.01416813 3.38403427 32.52046585 3.54658794 C29.0407256 3.62259175 25.56131473 3.70429228 22.08203125 3.79907227 C18.08100029 3.90781436 14.07978262 3.99166707 10.078125 4.07421875 C8.20607391 4.1302552 8.20607391 4.1302552 6.29620361 4.18742371 C4.55485138 4.21779472 4.55485138 4.21779472 2.77832031 4.2487793 C1.75683899 4.27320602 0.73535767 4.29763275 -0.31707764 4.32279968 C-3.39300858 3.9527146 -4.73160855 3.05467638 -7 1 C-2.25 0 -2.25 0 0 0 Z " fill="#89AF41" transform="translate(328,412)"/>
<path d="M0 0 C-3.8953458 0.98111308 -7.79135935 1.95954856 -11.6875 2.9375 C-12.79029297 3.21529297 -13.89308594 3.49308594 -15.02929688 3.77929688 C-16.09599609 4.04677734 -17.16269531 4.31425781 -18.26171875 4.58984375 C-19.24100342 4.83597412 -20.22028809 5.08210449 -21.22924805 5.33569336 C-25.68997831 6.4051838 -29.71576229 7.12378984 -34.3125 7.0625 C-35.19550781 7.05347656 -36.07851563 7.04445313 -36.98828125 7.03515625 C-37.65214844 7.02355469 -38.31601562 7.01195312 -39 7 C-39 6.34 -39 5.68 -39 5 C-38.04915527 4.88724731 -38.04915527 4.88724731 -37.07910156 4.7722168 C-21.46710205 3.02642607 -21.46710205 3.02642607 -6.20703125 -0.546875 C-3.74865244 -1.0516041 -2.3792412 -0.67505939 0 0 Z " fill="#3F9C56" transform="translate(604,732)"/>
<path d="M0 0 C0.66 0.33 1.32 0.66 2 1 C1.15695312 1.80824219 0.31390625 2.61648438 -0.5546875 3.44921875 C-1.66185552 4.52823843 -2.76860442 5.60768829 -3.875 6.6875 C-4.43058594 7.21794922 -4.98617188 7.74839844 -5.55859375 8.29492188 C-8.72672529 11.40579803 -10.44843303 13.78860394 -12 18 C-13.9453125 20.23828125 -13.9453125 20.23828125 -16.125 22.3125 C-16.84945313 23.00988281 -17.57390625 23.70726562 -18.3203125 24.42578125 C-19.15175781 25.20501953 -19.15175781 25.20501953 -20 26 C-20.6875 24.203125 -20.6875 24.203125 -21 22 C-19.8125 20.359375 -19.8125 20.359375 -18 18.75 C-15.33184129 16.27242406 -12.86323153 13.77142607 -10.5 11 C-7.17841283 7.14364482 -3.64719707 3.54742572 0 0 Z " fill="#96B842" transform="translate(373,317)"/>
<path d="M0 0 C0.33 0.66 0.66 1.32 1 2 C0.0034583 4.3272711 -1.05074396 6.55497882 -2.1875 8.8125 C-7.65796976 20.12075798 -10.56945248 31.71836971 -13 44 C-13.33 44 -13.66 44 -14 44 C-15.352992 39.20302838 -14.68613337 36.29532982 -13.0078125 31.8046875 C-12.00126677 29.00352534 -11.17503978 26.17359434 -10.3527832 23.31396484 C-7.8853883 14.86546078 -4.49756245 7.56938465 0 0 Z " fill="#4AA566" transform="translate(431,426)"/>
<path d="M0 0 C0.66 0.33 1.32 0.66 2 1 C-3.05299061 7.47414422 -8.78117634 12.98954241 -16 17 C-17.34631825 17.98244845 -18.68441297 18.97676564 -20 20 C-18.53033642 16.60140297 -16.61962486 14.35036291 -14 11.75 C-13.29875 11.04359375 -12.5975 10.3371875 -11.875 9.609375 C-10 8 -10 8 -8 8 C-7.67 7.01 -7.34 6.02 -7 5 C-5.37109375 3.61328125 -5.37109375 3.61328125 -3.4375 2.3125 C-2.47650391 1.65701172 -2.47650391 1.65701172 -1.49609375 0.98828125 C-1.00238281 0.66214844 -0.50867188 0.33601563 0 0 Z " fill="#54BD78" transform="translate(489,409)"/>
<path d="M0 0 C3.25424951 3.33362145 4.20969558 5.82866138 4.25 10.375 C4.1675 11.57125 4.085 12.7675 4 14 C3.01 14.33 2.02 14.66 1 15 C0.93941406 14.39671875 0.87882812 13.7934375 0.81640625 13.171875 C0.73261719 12.37265625 0.64882813 11.5734375 0.5625 10.75 C0.48128906 9.96109375 0.40007812 9.1721875 0.31640625 8.359375 C0.00488803 5.70381637 0.00488803 5.70381637 -1 2 C-5.29 1.34 -9.58 0.68 -14 0 C-14 -0.33 -14 -0.66 -14 -1 C-9.16332691 -2.56021712 -4.63989417 -1.87846462 0 0 Z " fill="#89BB48" transform="translate(365,546)"/>
<path d="M0 0 C0 0.33 0 0.66 0 1 C4.73879768 2.14850697 9.46291362 2.32901557 14.3125 2.5625 C15.14845703 2.60568359 15.98441406 2.64886719 16.84570312 2.69335938 C18.89696935 2.79885307 20.9484648 2.89987315 23 3 C23 3.33 23 3.66 23 4 C9.05460223 4.43478723 -4.23094838 3.20711812 -18 1 C-18 0.67 -18 0.34 -18 0 C-11.96496237 -1.50875941 -6.10261631 -0.64186094 0 0 Z " fill="#42B169" transform="translate(524,672)"/>
<path d="M0 0 C5.9276037 5.08080317 8.6580291 12.72756404 11 20 C10.67 20.99 10.34 21.98 10 23 C9.01 23.33 8.02 23.66 7 24 C7.12375 23.071875 7.2475 22.14375 7.375 21.1875 C7.4457049 15.46040343 3.87762074 10.73608413 1 6 C0.34 6 -0.32 6 -1 6 C-0.67 4.02 -0.34 2.04 0 0 Z M8 19 C9 21 9 21 9 21 Z " fill="#95BC48" transform="translate(689,400)"/>
<path d="M0 0 C4.79632188 1.33867491 8.17110095 3.30409855 12.125 6.3125 C13.13820313 7.07175781 14.15140625 7.83101562 15.1953125 8.61328125 C17.86873735 10.88829877 19.91769972 13.18540752 22 16 C17.38129564 14.43701639 13.78770436 11.95038441 9.875 9.125 C9.25496094 8.69058594 8.63492187 8.25617187 7.99609375 7.80859375 C4.76595784 5.49539965 2.16834079 3.40287058 0 0 Z " fill="#2B975D" transform="translate(378,686)"/>
<path d="M0 0 C3.77468671 0.56620301 5.47551893 2.12268981 8.109375 4.81640625 C8.86347656 5.58017578 9.61757813 6.34394531 10.39453125 7.13085938 C11.17183594 7.93330078 11.94914063 8.73574219 12.75 9.5625 C13.54277344 10.36880859 14.33554687 11.17511719 15.15234375 12.00585938 C17.10847046 13.99733778 19.05725719 15.99547721 21 18 C20.01 18.33 19.02 18.66 18 19 C9.89453125 10.89453125 9.89453125 10.89453125 8.43603516 9.43212891 C7.05374094 8.05359476 5.65797671 6.68860777 4.26171875 5.32421875 C2 3 2 3 0 0 Z " fill="#62B45C" transform="translate(698,629)"/>
<path d="M0 0 C3.96 0 7.92 0 12 0 C12 0.66 12 1.32 12 2 C13.216875 1.979375 14.43375 1.95875 15.6875 1.9375 C18.91977322 1.93175884 21.84934741 2.21233685 25 3 C25 3.33 25 3.66 25 4 C24.410979 3.96970703 23.82195801 3.93941406 23.21508789 3.90820312 C20.49767232 3.76979034 17.78009326 3.6348772 15.0625 3.5 C13.67321289 3.42845703 13.67321289 3.42845703 12.25585938 3.35546875 C6.49540167 3.0724989 0.76737595 2.95267794 -5 3 C-5 2.67 -5 2.34 -5 2 C-3.35 2 -1.7 2 0 2 C0 1.34 0 0.68 0 0 Z " fill="#69C775" transform="translate(535,362)"/>
<path d="M0 0 C0.99 0 1.98 0 3 0 C1.6910959 3.92671231 0.2923796 6.43926031 -3 9 C-6.77634696 10.20521711 -8.29773881 10.3511306 -11.875 8.5625 C-12.57625 8.046875 -13.2775 7.53125 -14 7 C-10.42355152 5.7619986 -7.66305234 6.25073929 -4 7 C-4 6.34 -4 5.68 -4 5 C-3.01 4.34 -2.02 3.68 -1 3 C-0.67 2.01 -0.34 1.02 0 0 Z " fill="#7BAF45" transform="translate(743,616)"/>
<path d="M0 0 C7.05920877 4.36009953 10.89601658 13.21526133 13 21 C8.98298353 19.66099451 8.49314819 17.89067282 6.4375 14.25 C5.83808594 13.20328125 5.23867188 12.1565625 4.62109375 11.078125 C2.71586057 7.46047742 1.29082963 3.87248888 0 0 Z " fill="#5DBB6F" transform="translate(615,429)"/>
<path d="M0 0 C4.42761914 1.39153744 6.9556255 3.52071486 10 7 C10 7.66 10 8.32 10 9 C10.763125 9.12375 11.52625 9.2475 12.3125 9.375 C15 10 15 10 18 12 C18 12.66 18 13.32 18 14 C12.59219195 13.662012 8.86685933 10.52383149 5 7 C3.1231645 4.74418811 1.58689014 2.47951585 0 0 Z " fill="#51AB59" transform="translate(681,686)"/>
<path d="M0 0 C0.66 0.99 1.32 1.98 2 3 C1.34 3 0.68 3 0 3 C-2.21970115 11.52662221 -2.21970115 11.52662221 -0.625 19.8125 C0.179375 20.8953125 0.179375 20.8953125 1 22 C-1.58567658 21.01922612 -3.03203028 19.96590325 -4.9375 17.9375 C-6.56833781 13.4287131 -4.85778776 10.25276717 -3 6 C-2.04276983 3.97918076 -1.06011943 1.96879323 0 0 Z " fill="#75AB47" transform="translate(698,570)"/>
<path d="M0 0 C1.93833996 0.08715017 3.8757429 0.19532964 5.8125 0.3125 C7.43091797 0.39951172 7.43091797 0.39951172 9.08203125 0.48828125 C12.24669633 1.04326268 13.02288037 1.58902967 15 4 C16.051875 4.495 16.051875 4.495 17.125 5 C19 6 19 6 20 9 C13.06001352 6.83836487 6.56882431 4.1063786 0 1 C0 0.67 0 0.34 0 0 Z " fill="#AECB47" transform="translate(628,271)"/>
<path d="M0 0 C5.67355671 0.61726196 11.33861055 1.27945952 17 2 C17 2.66 17 3.32 17 4 C17.62648438 4.12117188 18.25296875 4.24234375 18.8984375 4.3671875 C19.71570313 4.53476562 20.53296875 4.70234375 21.375 4.875 C22.18710937 5.03742188 22.99921875 5.19984375 23.8359375 5.3671875 C26 6 26 6 28 8 C21.80535692 7.3212527 16.03060448 5.6957044 10.0625 3.9375 C9.09248047 3.65583984 8.12246094 3.37417969 7.12304688 3.08398438 C4.74743409 2.39353534 2.37317295 1.69877999 0 1 C0 0.67 0 0.34 0 0 Z " fill="#B9D74B" transform="translate(592,260)"/>
<path d="M0 0 C7.44353792 -0.29642408 14.75693202 0.1433908 22 2 C22.66 2.66 23.32 3.32 24 4 C20.37 4 16.74 4 13 4 C13 3.67 13 3.34 13 3 C8.71 2.34 4.42 1.68 0 1 C0 0.67 0 0.34 0 0 Z " fill="#63B867" transform="translate(547,363)"/>
<path d="M0 0 C9.9 0.33 19.8 0.66 30 1 C30 1.33 30 1.66 30 2 C21.42 2 12.84 2 4 2 C3.67 2.66 3.34 3.32 3 4 C2.34 4 1.68 4 1 4 C0.67 2.68 0.34 1.36 0 0 Z " fill="#7DA13B" transform="translate(242,468)"/>
<path d="M0 0 C0.99 0.33 1.98 0.66 3 1 C2.34 1 1.68 1 1 1 C0.7525 1.598125 0.505 2.19625 0.25 2.8125 C-1 5 -1 5 -3.0625 6.1875 C-6.1877911 9.11115942 -5.82750168 12.885915 -6 17 C-6.33 17 -6.66 17 -7 17 C-7.86097841 7.31877615 -7.86097841 7.31877615 -4.625 3.4375 C-2 1 -2 1 0 0 Z " fill="#78A23C" transform="translate(245,544)"/>
<path d="M0 0 C4.94881287 0.44989208 8.36347798 2.77586708 12 6 C13.4375 8.3125 13.4375 8.3125 14 10 C10.67312232 8.45315734 7.75296022 6.54045021 4.75 4.4375 C3.85796875 3.81746094 2.9659375 3.19742187 2.046875 2.55859375 C1.37140625 2.04425781 0.6959375 1.52992188 0 1 C0 0.67 0 0.34 0 0 Z " fill="#ACCB47" transform="translate(672,294)"/>
<path d="M0 0 C3.4087928 1.3984791 4.87393835 2.85006933 6.75 6 C7.17796875 6.70125 7.6059375 7.4025 8.046875 8.125 C9 10 9 10 9 12 C5.5912072 10.6015209 4.12606165 9.14993067 2.25 6 C1.82203125 5.29875 1.3940625 4.5975 0.953125 3.875 C0 2 0 2 0 0 Z " fill="#2C9E65" transform="translate(324,624)"/>
<path d="M0 0 C0.66 0 1.32 0 2 0 C2.474375 0.639375 2.94875 1.27875 3.4375 1.9375 C4.9091365 4.28372963 4.9091365 4.28372963 8 5 C8 5.66 8 6.32 8 7 C8.66 7 9.32 7 10 7 C10.66 8.98 11.32 10.96 12 13 C7.47985202 9.32656562 3.55173809 5.62802237 0 1 C0 0.67 0 0.34 0 0 Z " fill="#2A935B" transform="translate(348,657)"/>
<path d="M0 0 C2.31 0 4.62 0 7 0 C7 0.99 7 1.98 7 3 C5.40084119 3.69906942 3.79544955 4.38389468 2.1875 5.0625 C1.29417969 5.44535156 0.40085937 5.82820312 -0.51953125 6.22265625 C-3 7 -3 7 -6 6 C-5.195625 5.7525 -4.39125 5.505 -3.5625 5.25 C-0.828919 4.27761141 -0.828919 4.27761141 -0.1875 1.875 C-0.125625 1.25625 -0.06375 0.6375 0 0 Z " fill="#50B366" transform="translate(608,656)"/>
<path d="M0 0 C2 1 2 1 3.0625 3.3125 C4.37976661 8.49374868 4.67262168 13.67579471 5 19 C4.34 19 3.68 19 3 19 C2.67 19.99 2.34 20.98 2 22 C1.67 20.35 1.34 18.7 1 17 C1.66 17 2.32 17 3 17 C2.68853528 15.10399631 2.37578283 13.20820413 2.0625 11.3125 C1.88847656 10.25675781 1.71445312 9.20101562 1.53515625 8.11328125 C1.06832879 5.39750396 0.55577384 2.69875765 0 0 Z " fill="#529B4D" transform="translate(731,661)"/>
<path d="M0 0 C2.12109375 0.953125 2.12109375 0.953125 4 2 C2.10751181 2.67610423 0.2108398 3.34050439 -1.6875 4 C-3.27111328 4.556875 -3.27111328 4.556875 -4.88671875 5.125 C-7.78362056 5.9391857 -10.01700623 6.17709796 -13 6 C-10.06053693 4.47583396 -7.07258986 3.22903594 -4 2 C-3.319375 1.5875 -2.63875 1.175 -1.9375 0.75 C-1.298125 0.5025 -0.65875 0.255 0 0 Z " fill="#4BB368" transform="translate(590,665)"/>
<path d="M0 0 C1.8125 1.5 1.8125 1.5 3 3 C1.4840625 2.9690625 1.4840625 2.9690625 -0.0625 2.9375 C-3.80327257 2.99687734 -7.31244898 3.39795085 -11 4 C-9 1 -9 1 -7.1875 0.3125 C-4.68685765 -0.04473462 -2.5211318 -0.25857762 0 0 Z " fill="#55B165" transform="translate(644,573)"/>
<path d="M0 0 C3.45201639 1.47721422 5.64961936 3.43794001 8.25 6.125 C8.95640625 6.84945313 9.6628125 7.57390625 10.390625 8.3203125 C11.18726563 9.15175781 11.18726563 9.15175781 12 10 C11.67 10.66 11.34 11.32 11 12 C10.401875 11.360625 9.80375 10.72125 9.1875 10.0625 C7.09189663 7.79689611 7.09189663 7.79689611 4 7 C2.48527726 4.72791589 1.21990407 2.43980815 0 0 Z " fill="#ADD24A" transform="translate(657,362)"/>
<path d="M0 0 C1 4 1 4 1.4375 5.9375 C2.10362663 8.37996432 3.02704233 10.6649016 4 13 C0.125 11.25 0.125 11.25 -1 9 C-1.23333333 2.46666667 -1.23333333 2.46666667 0 0 Z " fill="#81B849" transform="translate(695,579)"/>
<path d="M0 0 C3.59905908 0.55550695 4.99909799 1.74887248 7.25 4.5625 C8.03117188 5.52349609 8.03117188 5.52349609 8.828125 6.50390625 C9.21484375 6.99761719 9.6015625 7.49132812 10 8 C9.67 8.66 9.34 9.32 9 10 C7.49702124 8.52386015 5.99768715 7.04400843 4.5 5.5625 C3.6646875 4.73878906 2.829375 3.91507812 1.96875 3.06640625 C0 1 0 1 0 0 Z " fill="#63CD7B" transform="translate(603,417)"/>
<path d="M0 0 C4.21422242 2.88341534 5.76075855 5.04303419 7 10 C4.13211375 8.94844171 3.17723991 8.36380824 1.8125 5.5625 C1.544375 4.716875 1.27625 3.87125 1 3 C0.67 2.01 0.34 1.02 0 0 Z " fill="#61C575" transform="translate(615,429)"/>
<path d="M0 0 C1.875 0.25 1.875 0.25 4 1 C5.125 3 5.125 3 6 5 C6.66 5.33 7.32 5.66 8 6 C5 6 5 6 2.3125 3.5625 C0 1 0 1 0 0 Z " fill="#4DA95B" transform="translate(670,675)"/>
<path d="M0 0 C2.97 0.495 2.97 0.495 6 1 C6.33 2.98 6.66 4.96 7 7 C5.0625 6.1875 5.0625 6.1875 3 5 C2.67 4.01 2.34 3.02 2 2 C1.34 2 0.68 2 0 2 C0 1.34 0 0.68 0 0 Z " fill="#77AD44" transform="translate(706,599)"/>
<path d="M0 0 C3.36720387 1.39332574 4.9859524 2.9789286 7 6 C6.67 6.66 6.34 7.32 6 8 C1.2 4.55384615 1.2 4.55384615 0.1875 1.75 C0.125625 1.1725 0.06375 0.595 0 0 Z " fill="#40AC6E" transform="translate(463,539)"/>
<path d="M0 0 C0.33 0.99 0.66 1.98 1 3 C-3.75 7.875 -3.75 7.875 -6 9 C-4.47291037 5.56404834 -2.40072955 2.88087546 0 0 Z " fill="#59AA54" transform="translate(732,683)"/>
<path d="M0 0 C5.75 1.625 5.75 1.625 8 5 C5 5 5 5 2.3125 2.5 C1.549375 1.675 0.78625 0.85 0 0 Z " fill="#28985F" transform="translate(365,675)"/>
<path d="M0 0 C0.33 0.66 0.66 1.32 1 2 C-0.32 3.65 -1.64 5.3 -3 7 C-3.66 5.68 -4.32 4.36 -5 3 C-3.35 2.01 -1.7 1.02 0 0 Z " fill="#79AB41" transform="translate(749,609)"/>
<path d="M0 0 C3.36720387 1.39332574 4.9859524 2.9789286 7 6 C3.62496331 4.8141763 1.35277269 3.72426311 -1 1 C-0.67 0.67 -0.34 0.34 0 0 Z " fill="#3BA565" transform="translate(472,592)"/>
<path d="M0 0 C1.8125 0.1875 1.8125 0.1875 4 1 C5.56840126 3.26546849 6.77072645 5.5414529 8 8 C3.79373966 6.49776416 2.26099979 3.71449966 0 0 Z " fill="#399C62" transform="translate(449,574)"/>
<path d="M0 0 C-2.31 1.65 -4.62 3.3 -7 5 C-7.66 4.67 -8.32 4.34 -9 4 C-6.56225426 0.2214941 -6.56225426 0.2214941 -3.9375 -0.8125 C-2 -1 -2 -1 0 0 Z " fill="#5CC97C" transform="translate(477,383)"/>
<path d="M0 0 C0.94875 0.04125 1.8975 0.0825 2.875 0.125 C3.205 0.785 3.535 1.445 3.875 2.125 C0.54965243 3.23344919 -1.74682575 2.96954356 -5.125 2.125 C-3.125 0.125 -3.125 0.125 0 0 Z " fill="#A1C249" transform="translate(525.125,316.875)"/>
<path d="M0 0 C4.62 0 9.24 0 14 0 C14 0.33 14 0.66 14 1 C9.38 1 4.76 1 0 1 C0 0.67 0 0.34 0 0 Z " fill="#8BAF42" transform="translate(259,471)"/>
<path d="M0 0 C2.97 0 5.94 0 9 0 C9 0.33 9 0.66 9 1 C6.03 1 3.06 1 0 1 C0 0.67 0 0.34 0 0 Z " fill="#368F53" transform="translate(550,742)"/>
<path d="M0 0 C2.97 0.495 2.97 0.495 6 1 C3.92446352 1.5534764 2.15634036 2 0 2 C0 1.34 0 0.68 0 0 Z " fill="#2D8D55" transform="translate(464,733)"/>
<path d="M0 0 C2.31 0.33 4.62 0.66 7 1 C7 1.33 7 1.66 7 2 C4.69 1.67 2.38 1.34 0 1 C0 0.67 0 0.34 0 0 Z " fill="#5FBD73" transform="translate(552,397)"/>
<path d="M0 0 C1.98 0 3.96 0 6 0 C5.67 0.66 5.34 1.32 5 2 C3.35 1.67 1.7 1.34 0 1 C0 0.67 0 0.34 0 0 Z " fill="#308C53" transform="translate(512,742)"/>
<path d="M0 0 C2.31 0 4.62 0 7 0 C7 0.33 7 0.66 7 1 C4.69 1 2.38 1 0 1 C0 0.67 0 0.34 0 0 Z " fill="#90B947" transform="translate(328,519)"/>
<path d="M0 0 C0.99 0.33 1.98 0.66 3 1 C1.68 1.33 0.36 1.66 -1 2 C-0.67 1.34 -0.34 0.68 0 0 Z " fill="#4FB56D" transform="translate(596,605)"/>
<path d="M0 0 C1.485 0.99 1.485 0.99 3 2 C1.68 1.67 0.36 1.34 -1 1 C-0.67 0.67 -0.34 0.34 0 0 Z " fill="#47A967" transform="translate(373,592)"/>
<path d="M0 0 C0.33 0 0.66 0 1 0 C1 1.65 1 3.3 1 5 C0.67 5 0.34 5 0 5 C0 3.35 0 1.7 0 0 Z " fill="#8DBB4E" transform="translate(712,477)"/>
<path d="M0 0 C0.99 0.495 0.99 0.495 2 1 C1.67 1.66 1.34 2.32 1 3 C0.67 2.01 0.34 1.02 0 0 Z " fill="#2A8955" transform="translate(408,709)"/>
<path d="M0 0 C4 1 4 1 4 1 Z " fill="#49AD6C" transform="translate(565,615)"/>
<path d="M0 0 C0.99 0.33 1.98 0.66 3 1 C2.01 1 1.02 1 0 1 C0 0.67 0 0.34 0 0 Z " fill="#41AC6C" transform="translate(515,614)"/>
<path d="M0 0 C4 1 4 1 4 1 Z " fill="#8CB748" transform="translate(363,519)"/>
<path d="M0 0 C4 1 4 1 4 1 Z " fill="#8DB645" transform="translate(299,519)"/>
<path d="M0 0 C0.66 0.66 1.32 1.32 2 2 C1.01 2.495 1.01 2.495 0 3 C0 2.01 0 1.02 0 0 Z " fill="#82B54D" transform="translate(381,517)"/>
<path d="M0 0 C1 4 1 4 1 4 Z " fill="#64BA6D" transform="translate(669,495)"/>
<path d="M0 0 C4 1 4 1 4 1 Z " fill="#96BD48" transform="translate(323,471)"/>
<path d="M0 0 C4 1 4 1 4 1 Z " fill="#93B946" transform="translate(293,471)"/>
<path d="M0 0 C4 1 4 1 4 1 Z " fill="#91B945" transform="translate(288,471)"/>
<path d="M0 0 C0 3 0 3 0 3 Z " fill="#95BF4D" transform="translate(689,406)"/>
<path d="M0 0 C0.99 0.33 1.98 0.66 3 1 C2.01 1.33 1.02 1.66 0 2 C0 1.34 0 0.68 0 0 Z " fill="#68BF70" transform="translate(465,384)"/>
<path d="M0 0 C0 3 0 3 0 3 Z " fill="#68BE6F" transform="translate(477,376)"/>
<path d="M0 0 C4 1 4 1 4 1 Z " fill="#A0C34E" transform="translate(587,327)"/>
<path d="M0 0 C0.99 0.33 1.98 0.66 3 1 C2.01 1.33 1.02 1.66 0 2 C0 1.34 0 0.68 0 0 Z " fill="#9EC44D" transform="translate(491,326)"/>
<path d="M0 0 C4 1 4 1 4 1 Z " fill="#A5C64D" transform="translate(539,319)"/>
<path d="M0 0 C4 1 4 1 4 1 Z " fill="#9AB843" transform="translate(456,264)"/>
<path d="M0 0 C3 1 3 1 3 1 Z " fill="#2F8D54" transform="translate(496,740)"/>
<path d="M0 0 C3 1 3 1 3 1 Z " fill="#3F9654" transform="translate(595,735)"/>
<path d="" fill="#59A050" transform="translate(0,0)"/>
<path d="" fill="#3C9459" transform="translate(0,0)"/>
<path d="M0 0 C0.66 0.66 1.32 1.32 2 2 C1.34 2 0.68 2 0 2 C0 1.34 0 0.68 0 0 Z " fill="#3E945A" transform="translate(312,600)"/>
<path d="M0 0 C3 1 3 1 3 1 Z " fill="#47A968" transform="translate(365,593)"/>
<path d="M0 0 C3 1 3 1 3 1 Z " fill="#42A665" transform="translate(341,593)"/>
<path d="M0 0 C0.66 0 1.32 0 2 0 C1.67 0.66 1.34 1.32 1 2 C0.67 1.34 0.34 0.68 0 0 Z " fill="#72AD50" transform="translate(364,566)"/>
<path d="M0 0 C3 1 3 1 3 1 Z " fill="#90BA48" transform="translate(339,519)"/>
<path d="" fill="#45B073" transform="translate(0,0)"/>
<path d="M0 0 C0.66 0.66 1.32 1.32 2 2 C1.34 2 0.68 2 0 2 C0 1.34 0 0.68 0 0 Z " fill="#45B074" transform="translate(453,505)"/>
<path d="" fill="#87B84F" transform="translate(0,0)"/>
<path d="" fill="#8DBA4F" transform="translate(0,0)"/>
<path d="" fill="#56B570" transform="translate(0,0)"/>
<path d="M0 0 C0.33 0.66 0.66 1.32 1 2 C0.34 1.67 -0.32 1.34 -1 1 C-0.67 0.67 -0.34 0.34 0 0 Z " fill="#56B56F" transform="translate(419,448)"/>
<path d="M0 0 C0.66 0 1.32 0 2 0 C1.67 0.66 1.34 1.32 1 2 C0.67 1.34 0.34 0.68 0 0 Z " fill="#91BE4E" transform="translate(699,429)"/>
<path d="M0 0 C0.99 0.495 0.99 0.495 2 1 C1.01 1.495 1.01 1.495 0 2 C0 1.34 0 0.68 0 0 Z " fill="#5FBD75" transform="translate(524,398)"/>
<path d="M0 0 C3 1 3 1 3 1 Z " fill="#61BC73" transform="translate(544,397)"/>
<path d="M0 0 C3 1 3 1 3 1 Z " fill="#5FBB73" transform="translate(536,397)"/>
<path d="M0 0 C0.99 0.495 0.99 0.495 2 1 C1.01 1.495 1.01 1.495 0 2 C0 1.34 0 0.68 0 0 Z " fill="#91BB4C" transform="translate(405,383)"/>
<path d="M0 0 C0.66 0.66 1.32 1.32 2 2 C1.34 2 0.68 2 0 2 C0 1.34 0 0.68 0 0 Z " fill="#9BC14E" transform="translate(672,382)"/>
<path d="M0 0 C3 1 3 1 3 1 Z " fill="#71C06B" transform="translate(532,360)"/>
<path d="M0 0 C0.66 0.66 1.32 1.32 2 2 C1.34 2 0.68 2 0 2 C0 1.34 0 0.68 0 0 Z " fill="#9DC44D" transform="translate(644,355)"/>
<path d="M0 0 C3 1 3 1 3 1 Z " fill="#A5C64F" transform="translate(533,319)"/>
<path d="M0 0 C0.66 0 1.32 0 2 0 C1.67 0.66 1.34 1.32 1 2 C0.67 1.34 0.34 0.68 0 0 Z " fill="#9BB743" transform="translate(669,288)"/>
<path d="M0 0 C3 1 3 1 3 1 Z " fill="#9CB945" transform="translate(589,256)"/>
<path d="M0 0 C2 1 2 1 2 1 Z " fill="#358C52" transform="translate(540,743)"/>
<path d="M0 0 C2 1 2 1 2 1 Z " fill="#369055" transform="translate(547,742)"/>
<path d="M0 0 C2 1 2 1 2 1 Z " fill="#2F8B55" transform="translate(490,739)"/>
<path d="M0 0 C2 1 2 1 2 1 Z " fill="#3B9354" transform="translate(582,738)"/>
<path d="M0 0 C2 1 2 1 2 1 Z " fill="#3C9554" transform="translate(598,734)"/>
<path d="M0 0 C2 1 2 1 2 1 Z " fill="#409656" transform="translate(601,733)"/>
<path d="M0 0 C2 1 2 1 2 1 Z " fill="#429856" transform="translate(622,726)"/>
<path d="M0 0 C2 1 2 1 2 1 Z " fill="#2D8C56" transform="translate(443,726)"/>
<path d="M0 0 C2 1 2 1 2 1 Z " fill="#2A8654" transform="translate(432,725)"/>
<path d="M0 0 C2 1 2 1 2 1 Z " fill="#489C57" transform="translate(638,719)"/>
<path d="M0 0 C2 1 2 1 2 1 Z " fill="#4A954E" transform="translate(712,703)"/>
<path d="M0 0 C2 1 2 1 2 1 Z " fill="#4F9952" transform="translate(700,703)"/>
<path d="" fill="#4AB069" transform="translate(0,0)"/>
<path d="M0 0 C2 1 2 1 2 1 Z " fill="#52AD67" transform="translate(650,659)"/>
<path d="M0 0 C2 1 2 1 2 1 Z " fill="#39A66C" transform="translate(438,640)"/>
<path d="M0 0 C2 1 2 1 2 1 Z " fill="#2E915D" transform="translate(328,635)"/>
<path d="" fill="#78AF4C" transform="translate(0,0)"/>
<path d="" fill="#7CA642" transform="translate(0,0)"/>
<path d="M0 0 C2 1 2 1 2 1 Z " fill="#46A966" transform="translate(346,593)"/>
<path d="" fill="#7DA442" transform="translate(0,0)"/>
<path d="" fill="#43AE6F" transform="translate(0,0)"/>
<path d="M0 0 C2 1 2 1 2 1 Z " fill="#4FB06F" transform="translate(584,568)"/>
<path d="M0 0 C2 1 2 1 2 1 Z " fill="#50B56E" transform="translate(595,561)"/>
<path d="" fill="#45AE6F" transform="translate(0,0)"/>
<path d="M0 0 C2 1 2 1 2 1 Z " fill="#70923A" transform="translate(241,544)"/>
<path d="" fill="#4AB06F" transform="translate(0,0)"/>
<path d="" fill="#4EB16E" transform="translate(0,0)"/>
<path d="M0 0 C2 1 2 1 2 1 Z " fill="#8AB54A" transform="translate(373,519)"/>
<path d="M0 0 C2 1 2 1 2 1 Z " fill="#8CB949" transform="translate(360,519)"/>
<path d="M0 0 C2 1 2 1 2 1 Z " fill="#90BA47" transform="translate(349,519)"/>
<path d="M0 0 C2 1 2 1 2 1 Z " fill="#91BA47" transform="translate(336,519)"/>
<path d="M0 0 C2 1 2 1 2 1 Z " fill="#8FB847" transform="translate(317,519)"/>
<path d="M0 0 C2 1 2 1 2 1 Z " fill="#8FB747" transform="translate(309,519)"/>
<path d="M0 0 C2 1 2 1 2 1 Z " fill="#8AB445" transform="translate(296,519)"/>
<path d="" fill="#61BB6C" transform="translate(0,0)"/>
<path d="" fill="#89B84F" transform="translate(0,0)"/>
<path d="" fill="#58B56F" transform="translate(0,0)"/>
<path d="" fill="#59B76F" transform="translate(0,0)"/>
<path d="" fill="#8CBB50" transform="translate(0,0)"/>
<path d="" fill="#8CBA50" transform="translate(0,0)"/>
<path d="" fill="#66BA6D" transform="translate(0,0)"/>
<path d="M0 0 C2 1 2 1 2 1 Z " fill="#96BC4A" transform="translate(316,471)"/>
<path d="M0 0 C2 1 2 1 2 1 Z " fill="#82A73F" transform="translate(248,471)"/>
<path d="M0 0 C2 1 2 1 2 1 Z " fill="#8FB949" transform="translate(358,470)"/>
<path d="" fill="#5EBA70" transform="translate(0,0)"/>
<path d="" fill="#55B671" transform="translate(0,0)"/>
<path d="" fill="#92BC4D" transform="translate(0,0)"/>
<path d="" fill="#6ABD6C" transform="translate(0,0)"/>
<path d="" fill="#52B372" transform="translate(0,0)"/>
<path d="M0 0 C2 1 2 1 2 1 Z " fill="#62BD72" transform="translate(610,429)"/>
<path d="" fill="#8AB040" transform="translate(0,0)"/>
<path d="" fill="#53B573" transform="translate(0,0)"/>
<path d="" fill="#61BB72" transform="translate(0,0)"/>
<path d="" fill="#71C06C" transform="translate(0,0)"/>
<path d="" fill="#5DBA6F" transform="translate(0,0)"/>
<path d="M0 0 C2 1 2 1 2 1 Z " fill="#60BC72" transform="translate(580,406)"/>
<path d="M0 0 C2 1 2 1 2 1 Z " fill="#5EBB72" transform="translate(448,400)"/>
<path d="M0 0 C2 1 2 1 2 1 Z " fill="#61BC73" transform="translate(560,399)"/>
<path d="" fill="#95BF4B" transform="translate(0,0)"/>
<path d="" fill="#87AA3E" transform="translate(0,0)"/>
<path d="M0 0 C2 1 2 1 2 1 Z " fill="#72C16C" transform="translate(550,361)"/>
<path d="M0 0 C2 1 2 1 2 1 Z " fill="#72C06C" transform="translate(523,361)"/>
<path d="M0 0 C2 1 2 1 2 1 Z " fill="#72BF6A" transform="translate(541,360)"/>
<path d="M0 0 C2 1 2 1 2 1 Z " fill="#9CC24D" transform="translate(471,335)"/>
<path d="M0 0 C2 1 2 1 2 1 Z " fill="#A2C54C" transform="translate(603,332)"/>
<path d="" fill="#9DC34D" transform="translate(0,0)"/>
<path d="M0 0 C2 1 2 1 2 1 Z " fill="#9CC24D" transform="translate(476,331)"/>
<path d="" fill="#95B541" transform="translate(0,0)"/>
<path d="M0 0 C2 1 2 1 2 1 Z " fill="#A3C64B" transform="translate(578,324)"/>
<path d="M0 0 C2 1 2 1 2 1 Z " fill="#A2C54E" transform="translate(502,323)"/>
<path d="M0 0 C2 1 2 1 2 1 Z " fill="#92B342" transform="translate(376,312)"/>
<path d="M0 0 C2 1 2 1 2 1 Z " fill="#93B23F" transform="translate(385,304)"/>
<path d="M0 0 C2 1 2 1 2 1 Z " fill="#9CB841" transform="translate(660,283)"/>
<path d="M0 0 C2 1 2 1 2 1 Z " fill="#95B442" transform="translate(421,280)"/>
<path d="" fill="#9FBB45" transform="translate(0,0)"/>
<path d="M0 0 C2 1 2 1 2 1 Z " fill="#9DBA45" transform="translate(485,256)"/>
<path d="M0 0 C2 1 2 1 2 1 Z " fill="#A1BE44" transform="translate(550,251)"/>
<path d="" fill="#000000" transform="translate(0,0)"/>
<path d="" fill="#000000" transform="translate(0,0)"/>
<path d="" fill="#368D54" transform="translate(0,0)"/>
<path d="" fill="#348F53" transform="translate(0,0)"/>
<path d="" fill="#2F8751" transform="translate(0,0)"/>
<path d="" fill="#308D55" transform="translate(0,0)"/>
<path d="" fill="#389258" transform="translate(0,0)"/>
<path d="" fill="#308C55" transform="translate(0,0)"/>
<path d="" fill="#2F8C53" transform="translate(0,0)"/>
<path d="" fill="#3A9256" transform="translate(0,0)"/>
<path d="" fill="#2E8952" transform="translate(0,0)"/>
<path d="" fill="#2A8B54" transform="translate(0,0)"/>
<path d="" fill="#2E8957" transform="translate(0,0)"/>
<path d="" fill="#308D57" transform="translate(0,0)"/>
<path d="" fill="#419655" transform="translate(0,0)"/>
<path d="" fill="#2D8D58" transform="translate(0,0)"/>
<path d="" fill="#2C8D57" transform="translate(0,0)"/>
<path d="" fill="#419754" transform="translate(0,0)"/>
<path d="" fill="#2C8D54" transform="translate(0,0)"/>
<path d="" fill="#439758" transform="translate(0,0)"/>
<path d="" fill="#2D8856" transform="translate(0,0)"/>
<path d="" fill="#2B8A57" transform="translate(0,0)"/>
<path d="" fill="#2B8452" transform="translate(0,0)"/>
<path d="" fill="#2A8A57" transform="translate(0,0)"/>
<path d="" fill="#2B8A55" transform="translate(0,0)"/>
<path d="" fill="#2A8956" transform="translate(0,0)"/>
<path d="" fill="#499C56" transform="translate(0,0)"/>
<path d="" fill="#2C8C55" transform="translate(0,0)"/>
<path d="" fill="#298453" transform="translate(0,0)"/>
<path d="" fill="#4A9A57" transform="translate(0,0)"/>
<path d="" fill="#288858" transform="translate(0,0)"/>
<path d="" fill="#2A8A55" transform="translate(0,0)"/>
<path d="" fill="#4F9C54" transform="translate(0,0)"/>
<path d="" fill="#2A8756" transform="translate(0,0)"/>
<path d="" fill="#4F9F55" transform="translate(0,0)"/>
<path d="" fill="#4F9D59" transform="translate(0,0)"/>
<path d="" fill="#519F57" transform="translate(0,0)"/>
<path d="" fill="#4FA85C" transform="translate(0,0)"/>
<path d="" fill="#4FA25C" transform="translate(0,0)"/>
<path d="" fill="#52AD62" transform="translate(0,0)"/>
<path d="" fill="#53A75F" transform="translate(0,0)"/>
<path d="" fill="#51964D" transform="translate(0,0)"/>
<path d="" fill="#54A961" transform="translate(0,0)"/>
<path d="" fill="#50974F" transform="translate(0,0)"/>
<path d="" fill="#4F984F" transform="translate(0,0)"/>
<path d="" fill="#2A8A57" transform="translate(0,0)"/>
<path d="" fill="#298656" transform="translate(0,0)"/>
<path d="" fill="#53AD65" transform="translate(0,0)"/>
<path d="" fill="#2B8957" transform="translate(0,0)"/>
<path d="" fill="#53AB65" transform="translate(0,0)"/>
<path d="" fill="#51AD64" transform="translate(0,0)"/>
<path d="" fill="#52AC66" transform="translate(0,0)"/>
<path d="" fill="#2B8859" transform="translate(0,0)"/>
<path d="" fill="#2A8958" transform="translate(0,0)"/>
<path d="" fill="#54AD63" transform="translate(0,0)"/>
<path d="" fill="#54AE65" transform="translate(0,0)"/>
<path d="" fill="#4AB06B" transform="translate(0,0)"/>
<path d="" fill="#2C8C5A" transform="translate(0,0)"/>
<path d="" fill="#51AE64" transform="translate(0,0)"/>
<path d="" fill="#51AC63" transform="translate(0,0)"/>
<path d="" fill="#4CAF69" transform="translate(0,0)"/>
<path d="" fill="#4BB26B" transform="translate(0,0)"/>
<path d="" fill="#49AE6D" transform="translate(0,0)"/>
<path d="" fill="#40AB68" transform="translate(0,0)"/>
<path d="" fill="#3DAD6C" transform="translate(0,0)"/>
<path d="" fill="#2C8654" transform="translate(0,0)"/>
<path d="" fill="#4FAF68" transform="translate(0,0)"/>
<path d="" fill="#2A8E58" transform="translate(0,0)"/>
<path d="" fill="#51AE68" transform="translate(0,0)"/>
<path d="" fill="#4DB169" transform="translate(0,0)"/>
<path d="" fill="#39A96B" transform="translate(0,0)"/>
<path d="" fill="#38A86A" transform="translate(0,0)"/>
<path d="" fill="#3BA86A" transform="translate(0,0)"/>
<path d="" fill="#3EA76B" transform="translate(0,0)"/>
<path d="" fill="#52B068" transform="translate(0,0)"/>
<path d="" fill="#3CA76B" transform="translate(0,0)"/>
<path d="" fill="#67B156" transform="translate(0,0)"/>
<path d="" fill="#3CA76B" transform="translate(0,0)"/>
<path d="" fill="#30905C" transform="translate(0,0)"/>
<path d="" fill="#328E5A" transform="translate(0,0)"/>
<path d="" fill="#30935B" transform="translate(0,0)"/>
<path d="" fill="#74A243" transform="translate(0,0)"/>
<path d="" fill="#36935C" transform="translate(0,0)"/>
<path d="" fill="#79AE4B" transform="translate(0,0)"/>
<path d="" fill="#51AF6C" transform="translate(0,0)"/>
<path d="" fill="#4FB06E" transform="translate(0,0)"/>
<path d="" fill="#49AE6B" transform="translate(0,0)"/>
<path d="" fill="#40AA6B" transform="translate(0,0)"/>
<path d="" fill="#76A242" transform="translate(0,0)"/>
<path d="" fill="#7BB24C" transform="translate(0,0)"/>
<path d="" fill="#4AB06A" transform="translate(0,0)"/>
<path d="" fill="#4FB06B" transform="translate(0,0)"/>
<path d="" fill="#4DB06F" transform="translate(0,0)"/>
<path d="" fill="#4AB06C" transform="translate(0,0)"/>
<path d="" fill="#369059" transform="translate(0,0)"/>
<path d="" fill="#41AB6D" transform="translate(0,0)"/>
<path d="" fill="#6EB75B" transform="translate(0,0)"/>
<path d="" fill="#78A443" transform="translate(0,0)"/>
<path d="" fill="#3FAA6D" transform="translate(0,0)"/>
<path d="" fill="#3FAA6F" transform="translate(0,0)"/>
<path d="" fill="#7AB24F" transform="translate(0,0)"/>
<path d="" fill="#42AA6B" transform="translate(0,0)"/>
<path d="" fill="#79B150" transform="translate(0,0)"/>
<path d="" fill="#79B251" transform="translate(0,0)"/>
<path d="" fill="#3FA86C" transform="translate(0,0)"/>
<path d="" fill="#7DA843" transform="translate(0,0)"/>
<path d="" fill="#79B24E" transform="translate(0,0)"/>
<path d="" fill="#7AB251" transform="translate(0,0)"/>
<path d="" fill="#7BA642" transform="translate(0,0)"/>
<path d="" fill="#41A164" transform="translate(0,0)"/>
<path d="" fill="#47AA68" transform="translate(0,0)"/>
<path d="" fill="#48AA68" transform="translate(0,0)"/>
<path d="" fill="#47AB69" transform="translate(0,0)"/>
<path d="" fill="#47A966" transform="translate(0,0)"/>
<path d="" fill="#47A968" transform="translate(0,0)"/>
<path d="" fill="#47A665" transform="translate(0,0)"/>
<path d="" fill="#46A667" transform="translate(0,0)"/>
<path d="" fill="#40A76B" transform="translate(0,0)"/>
<path d="" fill="#43AF6D" transform="translate(0,0)"/>
<path d="" fill="#7CB450" transform="translate(0,0)"/>
<path d="" fill="#59B46A" transform="translate(0,0)"/>
<path d="" fill="#63B76D" transform="translate(0,0)"/>
<path d="" fill="#82B750" transform="translate(0,0)"/>
<path d="" fill="#45AF6F" transform="translate(0,0)"/>
<path d="" fill="#43AB6D" transform="translate(0,0)"/>
<path d="" fill="#79AD4C" transform="translate(0,0)"/>
<path d="" fill="#7BA948" transform="translate(0,0)"/>
<path d="" fill="#77A945" transform="translate(0,0)"/>
<path d="" fill="#729D40" transform="translate(0,0)"/>
<path d="" fill="#44AF6F" transform="translate(0,0)"/>
<path d="" fill="#658936" transform="translate(0,0)"/>
<path d="" fill="#7FB651" transform="translate(0,0)"/>
<path d="" fill="#4FB470" transform="translate(0,0)"/>
<path d="" fill="#50B370" transform="translate(0,0)"/>
<path d="" fill="#4EB26E" transform="translate(0,0)"/>
<path d="" fill="#45AF70" transform="translate(0,0)"/>
<path d="" fill="#82AB3F" transform="translate(0,0)"/>
<path d="" fill="#46AC6E" transform="translate(0,0)"/>
<path d="" fill="#000000" transform="translate(0,0)"/>
<path d="" fill="#43AC6E" transform="translate(0,0)"/>
<path d="" fill="#42AF70" transform="translate(0,0)"/>
<path d="" fill="#81A941" transform="translate(0,0)"/>
<path d="" fill="#5DBA6B" transform="translate(0,0)"/>
<path d="" fill="#44AA6F" transform="translate(0,0)"/>
<path d="" fill="#45AD6D" transform="translate(0,0)"/>
<path d="" fill="#54B571" transform="translate(0,0)"/>
<path d="" fill="#83AB41" transform="translate(0,0)"/>
<path d="" fill="#52B571" transform="translate(0,0)"/>
<path d="" fill="#7DB14F" transform="translate(0,0)"/>
<path d="" fill="#84B44C" transform="translate(0,0)"/>
<path d="" fill="#7BB04D" transform="translate(0,0)"/>
<path d="" fill="#45AF6D" transform="translate(0,0)"/>
<path d="" fill="#4AAB70" transform="translate(0,0)"/>
<path d="" fill="#8FB845" transform="translate(0,0)"/>
<path d="" fill="#8FB645" transform="translate(0,0)"/>
<path d="" fill="#83A73F" transform="translate(0,0)"/>
<path d="" fill="#48AC6F" transform="translate(0,0)"/>
<path d="" fill="#44AC70" transform="translate(0,0)"/>
<path d="" fill="#55B571" transform="translate(0,0)"/>
<path d="" fill="#46B071" transform="translate(0,0)"/>
<path d="" fill="#5EBC6C" transform="translate(0,0)"/>
<path d="" fill="#5FB46D" transform="translate(0,0)"/>
<path d="" fill="#86AC3F" transform="translate(0,0)"/>
<path d="" fill="#45B173" transform="translate(0,0)"/>
<path d="" fill="#81B24D" transform="translate(0,0)"/>
<path d="" fill="#85B84B" transform="translate(0,0)"/>
<path d="" fill="#8CB84A" transform="translate(0,0)"/>
<path d="" fill="#8CB949" transform="translate(0,0)"/>
<path d="" fill="#90B94A" transform="translate(0,0)"/>
<path d="" fill="#8FBA49" transform="translate(0,0)"/>
<path d="" fill="#8DBA49" transform="translate(0,0)"/>
<path d="" fill="#90B947" transform="translate(0,0)"/>
<path d="" fill="#90B945" transform="translate(0,0)"/>
<path d="" fill="#92B948" transform="translate(0,0)"/>
<path d="" fill="#8FB848" transform="translate(0,0)"/>
<path d="" fill="#8FB947" transform="translate(0,0)"/>
<path d="" fill="#8FB847" transform="translate(0,0)"/>
<path d="" fill="#89B044" transform="translate(0,0)"/>
<path d="" fill="#59B672" transform="translate(0,0)"/>
<path d="" fill="#83B64C" transform="translate(0,0)"/>
<path d="" fill="#89B343" transform="translate(0,0)"/>
<path d="" fill="#87AE41" transform="translate(0,0)"/>
<path d="" fill="#86AC3F" transform="translate(0,0)"/>
<path d="" fill="#65BC6E" transform="translate(0,0)"/>
<path d="" fill="#56B571" transform="translate(0,0)"/>
<path d="" fill="#45B072" transform="translate(0,0)"/>
<path d="" fill="#55B670" transform="translate(0,0)"/>
<path d="" fill="#88B74F" transform="translate(0,0)"/>
<path d="" fill="#8AB84F" transform="translate(0,0)"/>
<path d="" fill="#86AB41" transform="translate(0,0)"/>
<path d="" fill="#64BC6C" transform="translate(0,0)"/>
<path d="" fill="#88B94F" transform="translate(0,0)"/>
<path d="" fill="#63B86D" transform="translate(0,0)"/>
<path d="" fill="#4AB176" transform="translate(0,0)"/>
<path d="" fill="#8ABB4E" transform="translate(0,0)"/>
<path d="" fill="#84B351" transform="translate(0,0)"/>
<path d="" fill="#88B044" transform="translate(0,0)"/>
<path d="" fill="#57AF6B" transform="translate(0,0)"/>
<path d="" fill="#66BC6E" transform="translate(0,0)"/>
<path d="" fill="#8DB443" transform="translate(0,0)"/>
<path d="" fill="#92BE4C" transform="translate(0,0)"/>
<path d="" fill="#95C148" transform="translate(0,0)"/>
<path d="" fill="#97C047" transform="translate(0,0)"/>
<path d="" fill="#97C148" transform="translate(0,0)"/>
<path d="" fill="#98C148" transform="translate(0,0)"/>
<path d="" fill="#98C149" transform="translate(0,0)"/>
<path d="" fill="#9BC247" transform="translate(0,0)"/>
<path d="" fill="#99C046" transform="translate(0,0)"/>
<path d="" fill="#98C046" transform="translate(0,0)"/>
<path d="" fill="#9BC147" transform="translate(0,0)"/>
<path d="" fill="#95BE47" transform="translate(0,0)"/>
<path d="" fill="#96BD45" transform="translate(0,0)"/>
<path d="" fill="#96BB44" transform="translate(0,0)"/>
<path d="" fill="#5BB571" transform="translate(0,0)"/>
<path d="" fill="#5EB973" transform="translate(0,0)"/>
<path d="" fill="#4BB576" transform="translate(0,0)"/>
<path d="" fill="#67BB6E" transform="translate(0,0)"/>
<path d="" fill="#4CB376" transform="translate(0,0)"/>
<path d="" fill="#91BD4B" transform="translate(0,0)"/>
<path d="" fill="#96BB49" transform="translate(0,0)"/>
<path d="" fill="#97C048" transform="translate(0,0)"/>
<path d="" fill="#99BF4A" transform="translate(0,0)"/>
<path d="" fill="#98C149" transform="translate(0,0)"/>
<path d="" fill="#97C04A" transform="translate(0,0)"/>
<path d="" fill="#98BE45" transform="translate(0,0)"/>
<path d="" fill="#97BF47" transform="translate(0,0)"/>
<path d="" fill="#95BE47" transform="translate(0,0)"/>
<path d="" fill="#95BC48" transform="translate(0,0)"/>
<path d="" fill="#97BC48" transform="translate(0,0)"/>
<path d="" fill="#96BC48" transform="translate(0,0)"/>
<path d="" fill="#95BD47" transform="translate(0,0)"/>
<path d="" fill="#95BD46" transform="translate(0,0)"/>
<path d="" fill="#93B946" transform="translate(0,0)"/>
<path d="" fill="#88AD41" transform="translate(0,0)"/>
<path d="" fill="#86AA3F" transform="translate(0,0)"/>
<path d="" fill="#8CAF42" transform="translate(0,0)"/>
<path d="" fill="#67BC6E" transform="translate(0,0)"/>
<path d="" fill="#789939" transform="translate(0,0)"/>
<path d="" fill="#4BB774" transform="translate(0,0)"/>
<path d="" fill="#5DB56F" transform="translate(0,0)"/>
<path d="" fill="#8AB64C" transform="translate(0,0)"/>
<path d="" fill="#4CB275" transform="translate(0,0)"/>
<path d="" fill="#54B56F" transform="translate(0,0)"/>
<path d="" fill="#6CBD6F" transform="translate(0,0)"/>
<path d="" fill="#5EB771" transform="translate(0,0)"/>
<path d="" fill="#56B670" transform="translate(0,0)"/>
<path d="" fill="#5EB970" transform="translate(0,0)"/>
<path d="" fill="#60B870" transform="translate(0,0)"/>
<path d="" fill="#8CBB50" transform="translate(0,0)"/>
<path d="" fill="#8EBB4F" transform="translate(0,0)"/>
<path d="" fill="#8EBE51" transform="translate(0,0)"/>
<path d="" fill="#58B56F" transform="translate(0,0)"/>
<path d="" fill="#8FBC50" transform="translate(0,0)"/>
<path d="" fill="#69BE6D" transform="translate(0,0)"/>
<path d="" fill="#61BB71" transform="translate(0,0)"/>
<path d="" fill="#4FB675" transform="translate(0,0)"/>
<path d="" fill="#4FB878" transform="translate(0,0)"/>
<path d="" fill="#59B672" transform="translate(0,0)"/>
<path d="" fill="#6DC070" transform="translate(0,0)"/>
<path d="" fill="#50B675" transform="translate(0,0)"/>
<path d="" fill="#94BE47" transform="translate(0,0)"/>
<path d="" fill="#5AB76F" transform="translate(0,0)"/>
<path d="" fill="#64BB75" transform="translate(0,0)"/>
<path d="" fill="#6EBD6E" transform="translate(0,0)"/>
<path d="" fill="#5DBD70" transform="translate(0,0)"/>
<path d="" fill="#53B874" transform="translate(0,0)"/>
<path d="" fill="#5CBA72" transform="translate(0,0)"/>
<path d="" fill="#53B674" transform="translate(0,0)"/>
<path d="" fill="#52B673" transform="translate(0,0)"/>
<path d="" fill="#8DB03F" transform="translate(0,0)"/>
<path d="" fill="#6EBE6A" transform="translate(0,0)"/>
<path d="" fill="#90BD4F" transform="translate(0,0)"/>
<path d="" fill="#64BE73" transform="translate(0,0)"/>
<path d="" fill="#54B975" transform="translate(0,0)"/>
<path d="" fill="#59B971" transform="translate(0,0)"/>
<path d="" fill="#5CB972" transform="translate(0,0)"/>
<path d="" fill="#61BD71" transform="translate(0,0)"/>
<path d="" fill="#8BAF40" transform="translate(0,0)"/>
<path d="" fill="#64BA70" transform="translate(0,0)"/>
<path d="" fill="#5ABC76" transform="translate(0,0)"/>
<path d="" fill="#5CBA71" transform="translate(0,0)"/>
<path d="" fill="#60BE71" transform="translate(0,0)"/>
<path d="" fill="#5AB973" transform="translate(0,0)"/>
<path d="" fill="#95C14F" transform="translate(0,0)"/>
<path d="" fill="#86AC40" transform="translate(0,0)"/>
<path d="" fill="#93BF51" transform="translate(0,0)"/>
<path d="" fill="#8AB040" transform="translate(0,0)"/>
<path d="" fill="#5FBE71" transform="translate(0,0)"/>
<path d="" fill="#5BBB75" transform="translate(0,0)"/>
<path d="" fill="#5CBE75" transform="translate(0,0)"/>
<path d="" fill="#62BE73" transform="translate(0,0)"/>
<path d="" fill="#5EBA71" transform="translate(0,0)"/>
<path d="" fill="#75C66E" transform="translate(0,0)"/>
<path d="" fill="#5FBB74" transform="translate(0,0)"/>
<path d="" fill="#8DB84A" transform="translate(0,0)"/>
<path d="" fill="#5FB975" transform="translate(0,0)"/>
<path d="" fill="#5FBC75" transform="translate(0,0)"/>
<path d="" fill="#74C367" transform="translate(0,0)"/>
<path d="" fill="#95BF4B" transform="translate(0,0)"/>
<path d="" fill="#61BF75" transform="translate(0,0)"/>
<path d="" fill="#96C04E" transform="translate(0,0)"/>
<path d="" fill="#60BC73" transform="translate(0,0)"/>
<path d="" fill="#5FBD74" transform="translate(0,0)"/>
<path d="" fill="#61BD75" transform="translate(0,0)"/>
<path d="" fill="#5EBB75" transform="translate(0,0)"/>
<path d="" fill="#62BC74" transform="translate(0,0)"/>
<path d="" fill="#61BD73" transform="translate(0,0)"/>
<path d="" fill="#61BF77" transform="translate(0,0)"/>
<path d="" fill="#98BE4D" transform="translate(0,0)"/>
<path d="" fill="#60BB70" transform="translate(0,0)"/>
<path d="" fill="#8EB142" transform="translate(0,0)"/>
<path d="" fill="#9AC14B" transform="translate(0,0)"/>
<path d="" fill="#62BC72" transform="translate(0,0)"/>
<path d="" fill="#91B745" transform="translate(0,0)"/>
<path d="" fill="#75C46B" transform="translate(0,0)"/>
<path d="" fill="#65BE71" transform="translate(0,0)"/>
<path d="" fill="#99C24D" transform="translate(0,0)"/>
<path d="" fill="#75C06B" transform="translate(0,0)"/>
<path d="" fill="#88BC53" transform="translate(0,0)"/>
<path d="" fill="#92BB4E" transform="translate(0,0)"/>
<path d="" fill="#87AB40" transform="translate(0,0)"/>
<path d="" fill="#67BF71" transform="translate(0,0)"/>
<path d="" fill="#93BE4B" transform="translate(0,0)"/>
<path d="" fill="#84A73F" transform="translate(0,0)"/>
<path d="" fill="#8CB13F" transform="translate(0,0)"/>
<path d="" fill="#86A740" transform="translate(0,0)"/>
<path d="" fill="#67BE71" transform="translate(0,0)"/>
<path d="" fill="#87A93E" transform="translate(0,0)"/>
<path d="" fill="#8EB142" transform="translate(0,0)"/>
<path d="" fill="#77C168" transform="translate(0,0)"/>
<path d="" fill="#9CC34D" transform="translate(0,0)"/>
<path d="" fill="#94BE49" transform="translate(0,0)"/>
<path d="" fill="#7BC46B" transform="translate(0,0)"/>
<path d="" fill="#77C36A" transform="translate(0,0)"/>
<path d="" fill="#72C36B" transform="translate(0,0)"/>
<path d="" fill="#8CAE3F" transform="translate(0,0)"/>
<path d="" fill="#74C069" transform="translate(0,0)"/>
<path d="" fill="#96BF4C" transform="translate(0,0)"/>
<path d="" fill="#92B647" transform="translate(0,0)"/>
<path d="" fill="#70C16D" transform="translate(0,0)"/>
<path d="" fill="#73C16C" transform="translate(0,0)"/>
<path d="" fill="#72C069" transform="translate(0,0)"/>
<path d="" fill="#72BF6A" transform="translate(0,0)"/>
<path d="" fill="#73C06B" transform="translate(0,0)"/>
<path d="" fill="#92B23F" transform="translate(0,0)"/>
<path d="" fill="#9DC24E" transform="translate(0,0)"/>
<path d="" fill="#8AAE41" transform="translate(0,0)"/>
<path d="" fill="#9EC34E" transform="translate(0,0)"/>
<path d="" fill="#94B53F" transform="translate(0,0)"/>
<path d="" fill="#96C24D" transform="translate(0,0)"/>
<path d="" fill="#8AAB3D" transform="translate(0,0)"/>
<path d="" fill="#9AC04A" transform="translate(0,0)"/>
<path d="" fill="#060901" transform="translate(0,0)"/>
<path d="" fill="#93B742" transform="translate(0,0)"/>
<path d="" fill="#8EAF41" transform="translate(0,0)"/>
<path d="" fill="#99BF4D" transform="translate(0,0)"/>
<path d="" fill="#97C04B" transform="translate(0,0)"/>
<path d="" fill="#9EC64E" transform="translate(0,0)"/>
<path d="" fill="#8DC258" transform="translate(0,0)"/>
<path d="" fill="#98C14C" transform="translate(0,0)"/>
<path d="" fill="#8FAC3F" transform="translate(0,0)"/>
<path d="" fill="#A0C34E" transform="translate(0,0)"/>
<path d="" fill="#98C251" transform="translate(0,0)"/>
<path d="" fill="#94B441" transform="translate(0,0)"/>
<path d="" fill="#96B840" transform="translate(0,0)"/>
<path d="" fill="#93B441" transform="translate(0,0)"/>
<path d="" fill="#8DAC40" transform="translate(0,0)"/>
<path d="" fill="#8CAC40" transform="translate(0,0)"/>
<path d="" fill="#A1C74E" transform="translate(0,0)"/>
<path d="" fill="#9CC14C" transform="translate(0,0)"/>
<path d="" fill="#A0C74E" transform="translate(0,0)"/>
<path d="" fill="#9BC24D" transform="translate(0,0)"/>
<path d="" fill="#A2C54D" transform="translate(0,0)"/>
<path d="" fill="#8BAC42" transform="translate(0,0)"/>
<path d="" fill="#9EC44E" transform="translate(0,0)"/>
<path d="" fill="#9FC44E" transform="translate(0,0)"/>
<path d="" fill="#9FC64D" transform="translate(0,0)"/>
<path d="" fill="#9FC54D" transform="translate(0,0)"/>
<path d="" fill="#A1C54D" transform="translate(0,0)"/>
<path d="" fill="#A3C74C" transform="translate(0,0)"/>
<path d="" fill="#A2C84D" transform="translate(0,0)"/>
<path d="" fill="#94B541" transform="translate(0,0)"/>
<path d="" fill="#A1C54C" transform="translate(0,0)"/>
<path d="" fill="#99B541" transform="translate(0,0)"/>
<path d="" fill="#8FAE43" transform="translate(0,0)"/>
<path d="" fill="#A5C74E" transform="translate(0,0)"/>
<path d="" fill="#97B442" transform="translate(0,0)"/>
<path d="" fill="#96B744" transform="translate(0,0)"/>
<path d="" fill="#91B140" transform="translate(0,0)"/>
<path d="" fill="#95B440" transform="translate(0,0)"/>
<path d="" fill="#99B641" transform="translate(0,0)"/>
<path d="" fill="#95B343" transform="translate(0,0)"/>
<path d="" fill="#9BB740" transform="translate(0,0)"/>
<path d="" fill="#96B23F" transform="translate(0,0)"/>
<path d="" fill="#97B53F" transform="translate(0,0)"/>
<path d="" fill="#9CB942" transform="translate(0,0)"/>
<path d="" fill="#97B541" transform="translate(0,0)"/>
<path d="" fill="#96B13F" transform="translate(0,0)"/>
<path d="" fill="#97B540" transform="translate(0,0)"/>
<path d="" fill="#94B33D" transform="translate(0,0)"/>
<path d="" fill="#9BB740" transform="translate(0,0)"/>
<path d="" fill="#9DBA44" transform="translate(0,0)"/>
<path d="" fill="#9CB944" transform="translate(0,0)"/>
<path d="" fill="#9FBC44" transform="translate(0,0)"/>
<path d="" fill="#9CB641" transform="translate(0,0)"/>
<path d="" fill="#9EB945" transform="translate(0,0)"/>
<path d="" fill="#9DBA45" transform="translate(0,0)"/>
<path d="" fill="#9FB943" transform="translate(0,0)"/>
<path d="" fill="#A0BB44" transform="translate(0,0)"/>
<path d="" fill="#A1BC46" transform="translate(0,0)"/>
<path d="" fill="#000000" transform="translate(0,0)"/>
</svg>
